<svg xmlns="http://www.w3.org/2000/svg" viewBox="0 0 64 64">
  <path d="M26 0C23.796875 0 20.652344 0.6875 18.691406 2.007813C14.96875 2.140625 12.417969 4.757813 12.003906 8.898438C11.75 11.460938 11.984375 13.292969 12.136719 14.503906C12.191406 14.925781 12.25 15.398438 12.230469 15.542969C12.199219 15.726563 12.167969 15.917969 12.140625 16.105469C11.976563 16.113281 11.828125 16.136719 11.703125 16.171875C10.804688 16.410156 10.171875 17.214844 9.921875 18.433594C9.722656 19.410156 9.785156 20.597656 10.101563 21.777344C10.636719 23.773438 11.757813 25.273438 12.984375 25.734375C13.617188 27.671875 14.546875 29.597656 15.703125 31.328125L6.484375 36.667969C2.484375 38.984375 0 43.296875 0 47.921875L0 55C0 56.652344 1.347656 58 3 58L30.574219 58C29.667969 59.476563 29.84375 61.429688 31.121094 62.707031C31.867188 63.453125 32.847656 63.828125 33.828125 63.828125C34.808594 63.828125 35.789063 63.453125 36.535156 62.707031L41.121094 58.121094C41.199219 58.042969 41.386719 57.898438 41.417969 57.917969C43.644531 59.230469 46.230469 60 49 60C57.269531 60 64 53.269531 64 45C64 36.730469 57.269531 30 49 30C45.46875 30 42.226563 31.234375 39.660156 33.28125L36.296875 31.328125C37.453125 29.597656 38.382813 27.671875 39.015625 25.734375C40.242188 25.273438 41.363281 23.773438 41.898438 21.777344C42.214844 20.597656 42.277344 19.410156 42.078125 18.433594C41.828125 17.214844 41.195313 16.410156 40.296875 16.171875C40.171875 16.136719 40.027344 16.113281 39.859375 16.105469C39.722656 15.035156 39.449219 14.035156 38.941406 12.667969C38.929688 12.628906 38.917969 12.59375 38.90625 12.5625C39.257813 12.589844 39.824219 12.734375 40.285156 12.921875C40.632813 13.066406 41.027344 13.003906 41.3125 12.765625C41.597656 12.527344 41.726563 12.152344 41.644531 11.785156C40.03125 4.40625 34.558594 0 27 0 Z M 26 2L27 2C33.070313 2 37.453125 5.101563 39.25 10.582031C38.558594 10.503906 37.84375 10.589844 37.355469 11.0625C36.972656 11.425781 36.613281 12.125 37.066406 13.359375C37.683594 15.039063 37.902344 16.027344 37.96875 17.433594C37.984375 17.792969 38.191406 18.113281 38.511719 18.277344C38.828125 18.4375 39.210938 18.421875 39.515625 18.222656C39.675781 18.121094 39.761719 18.105469 39.78125 18.105469C39.835938 18.128906 40.015625 18.335938 40.117188 18.832031C40.253906 19.503906 40.199219 20.386719 39.964844 21.261719C39.472656 23.101563 38.527344 23.878906 38.234375 23.878906C37.792969 23.878906 37.402344 24.171875 37.277344 24.59375C35.589844 30.261719 31.175781 36 26 36C20.824219 36 16.410156 30.261719 14.722656 24.59375C14.597656 24.171875 14.210938 23.878906 13.765625 23.878906C13.472656 23.878906 12.527344 23.101563 12.035156 21.261719C11.800781 20.386719 11.746094 19.503906 11.882813 18.832031C11.988281 18.324219 12.171875 18.117188 12.21875 18.105469C12.21875 18.105469 12.304688 18.105469 12.484375 18.222656C12.789063 18.417969 13.167969 18.4375 13.488281 18.277344C13.808594 18.113281 14.015625 17.792969 14.03125 17.433594C14.054688 16.914063 14.113281 16.394531 14.203125 15.890625C14.277344 15.460938 14.214844 14.980469 14.121094 14.25C13.976563 13.128906 13.761719 11.433594 13.996094 9.101563C14.316406 5.90625 16.1875 4 19.019531 4C19.234375 4 19.445313 3.929688 19.617188 3.800781C20.988281 2.773438 23.730469 2 26 2 Z M 20.171875 8.125C19.582031 8.179688 19.023438 8.496094 18.683594 9.015625L17.078125 11.449219C16.773438 11.910156 16.902344 12.53125 17.363281 12.835938C17.53125 12.945313 17.722656 13 17.910156 13C18.238281 13 18.554688 12.84375 18.75 12.550781L20.351563 10.117188L21.914063 10.878906C24.761719 12.269531 27.941406 13 31.109375 13L33.667969 13C34.21875 13 34.667969 12.554688 34.667969 12C34.667969 11.445313 34.21875 11 33.667969 11L31.109375 11C28.242188 11 25.367188 10.335938 22.792969 9.078125L21.226563 8.320313C20.886719 8.152344 20.523438 8.09375 20.171875 8.125 Z M 49 32C56.167969 32 62 37.832031 62 45C62 52.167969 56.167969 58 49 58C41.832031 58 36 52.167969 36 45C36 37.832031 41.832031 32 49 32 Z M 16.90625 32.941406C19.339844 35.910156 22.503906 38 26 38C29.496094 38 32.65625 35.910156 35.089844 32.941406L38.125 34.699219C35.574219 37.390625 34 41.011719 34 45C34 47.699219 34.730469 50.230469 35.984375 52.421875C35.996094 52.4375 35.800781 52.613281 35.707031 52.707031L32.414063 56L3 56C2.449219 56 2 55.550781 2 55L2 47.921875C2 44.007813 4.101563 40.359375 7.488281 38.398438 Z M 48.914063 34C42.894531 34 38 38.894531 38 44.914063C38 50.933594 42.894531 55.828125 48.914063 55.828125C54.933594 55.828125 59.828125 50.933594 59.828125 44.914063C59.828125 38.894531 54.933594 34 48.914063 34 Z M 48.914063 36C53.828125 36 57.828125 40 57.828125 44.914063C57.828125 49.828125 53.828125 53.828125 48.914063 53.828125C44 53.828125 40 49.828125 40 44.914063C40 40 44 36 48.914063 36 Z M 48.914063 37.828125C48.363281 37.828125 47.914063 38.273438 47.914063 38.828125C47.914063 39.378906 48.363281 39.828125 48.914063 39.828125C50.957031 39.828125 52.792969 41.039063 53.59375 42.921875C53.757813 43.300781 54.128906 43.527344 54.515625 43.527344C54.648438 43.527344 54.78125 43.503906 54.90625 43.449219C55.417969 43.230469 55.652344 42.644531 55.4375 42.136719C54.320313 39.519531 51.757813 37.828125 48.914063 37.828125 Z M 18.0625 38C17.671875 37.976563 17.289063 38.183594 17.105469 38.550781C16.859375 39.046875 17.058594 39.648438 17.550781 39.894531L25.550781 43.894531C25.695313 43.964844 25.847656 44 26 44C26.152344 44 26.308594 43.964844 26.449219 43.894531L32.597656 40.820313C33.089844 40.574219 33.292969 39.972656 33.046875 39.480469C32.796875 38.984375 32.195313 38.785156 31.703125 39.03125L26 41.882813L18.449219 38.105469C18.324219 38.042969 18.191406 38.011719 18.0625 38 Z M 6 50C5.449219 50 5 50.445313 5 51L5 53C5 53.554688 5.449219 54 6 54C6.550781 54 7 53.554688 7 53L7 51C7 50.445313 6.550781 50 6 50 Z M 11 50C10.449219 50 10 50.445313 10 51L10 53C10 53.554688 10.449219 54 11 54C11.550781 54 12 53.554688 12 53L12 51C12 50.445313 11.550781 50 11 50 Z M 16 50C15.449219 50 15 50.445313 15 51L15 53C15 53.554688 15.449219 54 16 54C16.550781 54 17 53.554688 17 53L17 51C17 50.445313 16.550781 50 16 50 Z M 21 50C20.449219 50 20 50.445313 20 51L20 53C20 53.554688 20.449219 54 21 54C21.550781 54 22 53.554688 22 53L22 51C22 50.445313 21.550781 50 21 50 Z M 26 50C25.449219 50 25 50.445313 25 51L25 53C25 53.554688 25.449219 54 26 54C26.550781 54 27 53.554688 27 53L27 51C27 50.445313 26.550781 50 26 50 Z M 31 50C30.449219 50 30 50.445313 30 51L30 53C30 53.554688 30.449219 54 31 54C31.550781 54 32 53.554688 32 53L32 51C32 50.445313 31.550781 50 31 50 Z M 37.121094 54.121094C37.867188 55.089844 38.722656 55.96875 39.683594 56.734375L35.121094 61.292969C34.40625 62.007813 33.25 62.007813 32.535156 61.292969C31.820313 60.578125 31.820313 59.421875 32.535156 58.707031L33.53125 57.707031L33.535156 57.703125Z" fill="#CFCFCF" />
</svg>