<svg xmlns="http://www.w3.org/2000/svg" width="24.007" height="20.766" viewBox="0 0 24.007 20.766">
  <g id="iconfinder_299085_profile_group_icon" transform="translate(0.007 -1030.6)">
    <path id="Path_73" data-name="Path 73" d="M6.25,6.5a2.6,2.6,0,0,0-.625.063,2.715,2.715,0,0,0-.344.125c-.043.018-.082.042-.125.063-.018.008-.014.023-.031.031a2.752,2.752,0,0,0-.312.156c-.014.009-.049.022-.062.031-.029.02-.034.041-.062.062-.082.059-.173.121-.25.188s-.122.149-.187.219a3.613,3.613,0,0,0-.594.75,4.451,4.451,0,0,0-.531,1.531.259.259,0,0,0-.125,0c-.273.089-.334.609-.156,1.156a1.541,1.541,0,0,0,.437.719,3.917,3.917,0,0,0,1.406,2.187v.531l-.531.5-1.031.532c-.842.417-1.691.833-2.531,1.25A1.385,1.385,0,0,0,0,17.938c.022.325-.1.751.219.968A2.7,2.7,0,0,0,1.25,19H3.062a2.464,2.464,0,0,1,.688-.625l.031-.031h.031c1.411-.693,2.8-1.4,4.219-2.094l1.625-.781c-.092-.046-.189-.08-.281-.125l-1.031-.532-.531-.5v-.531a3.654,3.654,0,0,0,1.031-1.25,7.082,7.082,0,0,1-.813-1.937,2.921,2.921,0,0,1-.75-1.156,3.423,3.423,0,0,1-.156-1.5,1.232,1.232,0,0,1,.625-.969,3.812,3.812,0,0,0-.375-.188c-.06-.029-.095-.069-.156-.094-.043-.018-.081-.016-.125-.031a2.627,2.627,0,0,0-.406-.125c-.011,0-.021,0-.031,0A2.51,2.51,0,0,0,6.25,6.5Z" transform="translate(0 1028.4)" fill="#c3c1c1"/>
    <path id="Path_74" data-name="Path 74" d="M13.5,1030.6a3.6,3.6,0,0,0-1.038.1,1.286,1.286,0,0,0-.573.2.226.226,0,0,0-.219.1h-.082c-.177.1-.351.2-.519.3h-.082c-.049.1-.088.1-.136.2-.137.1-.281.1-.41.3-.117.1-.218.2-.328.3a5.935,5.935,0,0,0-.955,1.3,6.669,6.669,0,0,0-.929,2.5H8.037c-.459.2-.572,1-.273,1.9a2.141,2.141,0,0,0,.765,1.2,6.439,6.439,0,0,0,2.349,3.7v.9l-.874.8-1.748.9q-2.12,1.05-4.234,2.1a2.243,2.243,0,0,0-1.011,2.2c.036.6-.161,1.3.382,1.6.516.3,1.133.1,1.694.1H17c2.069,0,4.132.1,6.2,0,.671,0,.857-.7.792-1.3a2.9,2.9,0,0,0-.574-2.3,11.055,11.055,0,0,0-1.884-1.1c-.927-.4-1.86-.9-2.786-1.3L17,1044.4l-.874-.8v-.9a6.435,6.435,0,0,0,2.349-3.7,2.137,2.137,0,0,0,.765-1.2c.3-.9.186-1.7-.273-1.9h-.191a6.662,6.662,0,0,0-.929-2.5,5.9,5.9,0,0,0-.956-1.3c-.11-.1-.21-.2-.328-.3h-.027a5.594,5.594,0,0,0-1.12-.8c-.1,0-.2-.1-.3-.1-.073,0-.144-.1-.219-.1-.223-.1-.45-.1-.683-.2H13.5Z" fill="#c3c1c1"/>
  </g>
</svg>
