<svg xmlns="http://www.w3.org/2000/svg" width="32.195" height="28.989" viewBox="0 0 32.195 28.989">
  <g id="Group_105" data-name="Group 105" transform="translate(-830.303 -657.405)">
    <path id="Subtraction_2" data-name="Subtraction 2" d="M4.747,6.406a8.472,8.472,0,0,1-2.393-.165A6.951,6.951,0,0,1,1.093,5.088,5.5,5.5,0,0,1,.368,4.043,3.053,3.053,0,0,1,0,2.831,2.463,2.463,0,0,1,1.073.726,3.029,3.029,0,0,1,2.99,0a3.3,3.3,0,0,1,1.5.386,5.3,5.3,0,0,1,1.25.905,6.235,6.235,0,0,1,.88,1.044,2.519,2.519,0,0,1,.389.8,7.5,7.5,0,0,1,.545,1.538,12.37,12.37,0,0,1,.3,1.667H7.841C7.56,6.354,6.091,6.406,4.747,6.406ZM3.075,1.3a1.89,1.89,0,0,0-1.232.545A1.36,1.36,0,0,0,1.25,3.221a2.226,2.226,0,0,0,1,1.143A9.207,9.207,0,0,0,4,5.237a19.627,19.627,0,0,0,2.407.751,14.927,14.927,0,0,0-.891-2.341,6.717,6.717,0,0,0-1.048-1.61A1.944,1.944,0,0,0,3.075,1.3Z" transform="translate(838.202 657.405)" fill="#969392"/>
    <path id="Subtraction_3" data-name="Subtraction 3" d="M4.747,0A8.473,8.473,0,0,0,2.354.165,6.95,6.95,0,0,0,1.093,1.318,5.5,5.5,0,0,0,.368,2.363,3.051,3.051,0,0,0,0,3.575a2.463,2.463,0,0,0,1.069,2.1,3.029,3.029,0,0,0,1.917.726,3.3,3.3,0,0,0,1.5-.386,5.305,5.305,0,0,0,1.25-.905,6.24,6.24,0,0,0,.88-1.044,2.521,2.521,0,0,0,.389-.8A7.5,7.5,0,0,0,7.553,1.73,12.372,12.372,0,0,0,7.85.063H7.841C7.56.052,6.091,0,4.747,0ZM3.075,5.1a1.89,1.89,0,0,1-1.232-.545,1.36,1.36,0,0,1-.594-1.371,2.226,2.226,0,0,1,1-1.143A9.212,9.212,0,0,1,4,1.169,19.634,19.634,0,0,1,6.406.418,14.91,14.91,0,0,1,5.515,2.76a6.716,6.716,0,0,1-1.048,1.61A1.945,1.945,0,0,1,3.075,5.1Z" transform="translate(854.579 663.811) rotate(180)" fill="#969392"/>
    <rect id="Rectangle_339" data-name="Rectangle 339" width="23.125" height="4.289" rx="2.144" transform="translate(834.844 664.575)" fill="#969392"/>
    <path id="Path_562" data-name="Path 562" d="M20380.975-125.015a8.082,8.082,0,0,1,4.754-1.088c2.734.242,4.354,1.288,6.184,2.055s4.711,1.068,6.688,1.571.6.332,1.219.443a4.179,4.179,0,0,0,1.264,0v-9.1h-20.107Z" transform="translate(-19544.711 800.036)" fill="#969392"/>
    <path id="Path_563" data-name="Path 563" d="M20328.531-70.188l3.492,4.614,1.137-.5a7.668,7.668,0,0,1,2.143-1.2,6.038,6.038,0,0,1,2.273-.208,5.616,5.616,0,0,1,1.158.235c.541.184,4.5,1.984,4.5,1.984s1.867.536,2.748.775a42.786,42.786,0,0,0,8.1-.456,41.321,41.321,0,0,0,5.723-3.28c.43-.421,1.262-1.21.764-2.037s-2.617,0-2.617,0l-3.072,1.773a4.659,4.659,0,0,1-2.045.379c-1.639.095-4.516,0-4.516,0s-2.883-1.154-2.883-1.582,2.883-.127,2.883-.127l2.568.524s1.916-.378,1.947-1.7-1.947-1.565-1.947-1.565-1.789-.272-3.035-.544a14.8,14.8,0,0,1-1.951-.544s-4.018-1.692-4.437-1.813a10.27,10.27,0,0,0-1.771-.4,8.084,8.084,0,0,0-1.551,0,9.637,9.637,0,0,0-2.686.637,15.727,15.727,0,0,0-2.785,1.579,21.155,21.155,0,0,0-2.3,1.63A16.214,16.214,0,0,0,20328.531-70.188Z" transform="translate(-19498.229 750.819)" fill="#969392"/>
  </g>
</svg>
