<svg xmlns="http://www.w3.org/2000/svg" viewBox="0 0 32 32">
  <path d="M5 6C3.355469 6 2 7.355469 2 9L2 23C2 24.644531 3.355469 26 5 26L16.265625 26C17.160156 29.4375 20.292969 32 24 32C28.398438 32 32 28.398438 32 24C32 21.984375 31.238281 20.144531 30 18.734375L30 9C30 7.355469 28.644531 6 27 6 Z M 5 8L27 8C27.566406 8 28 8.433594 28 9L28 17.089844C26.820313 16.402344 25.457031 16 24 16C21.488281 16 19.242188 17.175781 17.769531 19L16 19L16 21L16.59375 21C16.210938 21.929688 16 22.941406 16 24L5 24C4.433594 24 4 23.566406 4 23L4 9C4 8.433594 4.433594 8 5 8 Z M 6 12L6 16L11 16L11 12 Z M 16 12L16 14L25 14L25 12 Z M 24 18C27.300781 18 30 20.699219 30 24C30 27.300781 27.300781 30 24 30C20.699219 30 18 27.300781 18 24C18 20.699219 20.699219 18 24 18 Z M 6 19L6 21L10 21L10 19 Z M 11 19L11 21L15 21L15 19 Z M 24 20C21.800781 20 21 21.800781 21 23L23 23C23 22.5 23.199219 22 24 22C24.800781 22 25 22.5 25 23C25 23.5 24.5 23.800781 24.199219 23.902344L24 23.902344C23.398438 24.101563 23 24.699219 23 25.402344L23 26L25 26L25 25.699219C26 25.300781 27 24.300781 27 23C27 21.800781 26.199219 20 24 20 Z M 23 27L23 29L25 29L25 27Z" fill="#C3C1C1" />
</svg>