<svg xmlns="http://www.w3.org/2000/svg" xmlns:xlink="http://www.w3.org/1999/xlink" width="97.051" height="56.971" viewBox="0 0 97.051 56.971">
  <defs>
    <linearGradient id="linear-gradient" x1="0.5" x2="0.5" y2="1" gradientUnits="objectBoundingBox">
      <stop offset="0" stop-color="#fda201"/>
      <stop offset="1" stop-color="#dd340d"/>
    </linearGradient>
    <linearGradient id="linear-gradient-2" x1="0.5" x2="0.5" y2="1.228" gradientUnits="objectBoundingBox">
      <stop offset="0" stop-color="#fea401"/>
      <stop offset="1" stop-color="#d00712"/>
    </linearGradient>
  </defs>
  <g id="Group_75" data-name="Group 75" transform="translate(-161.949 -11.933)">
    <path id="Subtraction_1" data-name="Subtraction 1" d="M6.217,29.561h0L0,24.731c.058-.017,6.156-1.8,7.265-2.359a14.424,14.424,0,0,0,4.082-3.221,20.624,20.624,0,0,0,2.7-3.82l0,0a8.118,8.118,0,0,1-3.783,1.347l-.108,0a4.022,4.022,0,0,1-2.3-.957,6.037,6.037,0,0,1-.922-.915,9.231,9.231,0,0,1-2.285-2.959A14.631,14.631,0,0,1,3.633,7.653a7.917,7.917,0,0,1,.173-2.575,7,7,0,0,1,.949-2.26A6.527,6.527,0,0,1,6.928.763,5.024,5.024,0,0,1,9.484,0a4.918,4.918,0,0,1,3.208,1.311,9.687,9.687,0,0,1,1.8,2.111A23.733,23.733,0,0,1,15.914,7.01c.73,2.1,1.558,4.478,2.249,5.212.46.489,2.1,2.083,3.891,2.083a2.71,2.71,0,0,0,1.426-.4c1.994-1.21,2.866-2.382,2.434-5.767a10.746,10.746,0,0,0-1.386-4.072,7.854,7.854,0,0,0-1.049-1.433L26.851.426l0,0a26.833,26.833,0,0,1,2.132,6.362,14,14,0,0,1-.636,5.645,8.832,8.832,0,0,1-1.676,2.487,7.016,7.016,0,0,1-1.779,1.367,5.553,5.553,0,0,1-2.425.65c-.082,0-.165,0-.246,0a7.009,7.009,0,0,1-2.327-.393,7.2,7.2,0,0,1-1.694-.864,6.469,6.469,0,0,1-1.387-1.257.042.042,0,0,1,0,.012,33.679,33.679,0,0,1-.914,3.269A24.711,24.711,0,0,1,13,23.832a18.242,18.242,0,0,1-4.383,4.283,18.115,18.115,0,0,1-2.4,1.446ZM8.708,1.684a1.551,1.551,0,0,0-1.04.418c-.784.666-1.075,3.65-.637,6.516a12.918,12.918,0,0,0,2.322,5.356,2.008,2.008,0,0,0,1.112.448,1.029,1.029,0,0,0,.274-.037c.669-.186.637-1,.637-1.011a23.557,23.557,0,0,0,0-3.6,23.748,23.748,0,0,0-.637-3.558l2.247-.9a9.326,9.326,0,0,0-2.509-3,3.741,3.741,0,0,0-1.768-.642Z" transform="translate(228.396 39.344)" fill="url(#linear-gradient)"/>
    <circle id="Ellipse_243" data-name="Ellipse 243" cx="2" cy="2" r="2" transform="translate(251 59)" fill="#dd340d"/>
    <circle id="Ellipse_244" data-name="Ellipse 244" cx="2" cy="2" r="2" transform="translate(255 59)" fill="#dd340d"/>
    <circle id="Ellipse_245" data-name="Ellipse 245" cx="2" cy="2" r="2" transform="translate(253 63)" fill="#dd340d"/>
    <path id="Path_525" data-name="Path 525" d="M3181.968,2521.259l-4,1.988a64.156,64.156,0,0,1,3.773,12.436,38.577,38.577,0,0,1,.776,6.4,12.89,12.89,0,0,1-.776,4.35s-1.358,2.84-5.366,2.316-5.58-3.632-6.179-5.992a23.072,23.072,0,0,1-.28-4.326,23.666,23.666,0,0,0-.449-3,14.252,14.252,0,0,0-1.929-4.213,38.136,38.136,0,0,0-2.965-4.091,38.254,38.254,0,0,0,9.931-4.542,39.387,39.387,0,0,0,7.958-7.622l-.173-7.274s-5.25,7.743-11.268,11.863a29.039,29.039,0,0,1-12.807,4.615l-1.5,3.745,4.724-.26-2.189,2.075a15.82,15.82,0,0,1,3.99,4.131,12.573,12.573,0,0,1,1.512,5.13,12.719,12.719,0,0,1-.875,5.308,9.32,9.32,0,0,1-3.359,3.536s-2.689,1.414-4.728.809-3.424-3.228-3.424-3.228a24.388,24.388,0,0,1-1.23-4.852,36.763,36.763,0,0,1-.239-5.663l-4-.145s.722,1.793,1.247,3.673.856,3.846.856,3.846a22.023,22.023,0,0,1,.38,4.468c-.144,1.642-.2,2.178-.957,2.1s-1.292-.807-2.077-2.413a14.945,14.945,0,0,1-1.063-4.011,36.279,36.279,0,0,1-.772-3.8,31.759,31.759,0,0,1-.265-3.716h-4.35a32.136,32.136,0,0,1,1.4,3.528,23.914,23.914,0,0,1,.785,3.385,18.611,18.611,0,0,1,.619,4.292c-.058,1.757-.213,2.362-.85,2.737s-.992-.216-1.7-1.239a10.23,10.23,0,0,1-1.125-2.852,22.791,22.791,0,0,1-1.016-4.188c-.369-2.463-.461-5.663-.461-5.663h-3.918a14.855,14.855,0,0,1,1.127,2.555,10.759,10.759,0,0,1,.429,2.494,27.219,27.219,0,0,1,.358,4.35,47.892,47.892,0,0,1-.358,5.163,16.635,16.635,0,0,1-1.252,3.63,5.429,5.429,0,0,1-1.83,2.017,5.119,5.119,0,0,1-1.765.5,5.589,5.589,0,0,1-1.864-.27,6.6,6.6,0,0,1-2.03-2.247,10.317,10.317,0,0,1-.872-3.37,31.859,31.859,0,0,1-.327-3.326c-.082-1.825,0-3.977,0-3.977l-4.624,2.733a23.911,23.911,0,0,0,.773,6.1,8.729,8.729,0,0,0,3.53,4.822,7.292,7.292,0,0,0,4.615,1.458,10.706,10.706,0,0,0,3.658-.663,4.869,4.869,0,0,0,1.988-1.257,10.232,10.232,0,0,0,1.556-2.517l1.268-3.63a7.527,7.527,0,0,0,1.617,1.316,4.139,4.139,0,0,0,1.667.47,4.879,4.879,0,0,0,1.853-.47,6.8,6.8,0,0,0,1.662-1.316s1.959,2.283,3.853,1.93,2.859-3.024,2.859-3.024a6.976,6.976,0,0,0,2.122,2.186,5.419,5.419,0,0,0,3.122.839,31.076,31.076,0,0,0,3.967-.614,17,17,0,0,0,3.351-1.171,6.847,6.847,0,0,0,2.435-1.5,12.346,12.346,0,0,0,1.873-2.693,14.692,14.692,0,0,0,1.28,2.419,7.911,7.911,0,0,0,1.771,1.772,13.212,13.212,0,0,0,2.817,1.171,16.5,16.5,0,0,0,3.232.47,8.2,8.2,0,0,0,3.565-.695,8,8,0,0,0,2.614-2.719,14.257,14.257,0,0,0,1.318-3.536,26.952,26.952,0,0,0,.569-4.783s-.421-4.292-1.318-8.858S3181.968,2521.259,3181.968,2521.259Z" transform="translate(-2958.62 -2495.607)" stroke="#707070" stroke-width="0.1" fill="url(#linear-gradient-2)"/>
  </g>
</svg>
