<svg id="help" xmlns="http://www.w3.org/2000/svg" width="34.492" height="21.59" viewBox="0 0 34.492 21.59">
  <path id="Path_548" data-name="Path 548" d="M3.787,0H30.706a3.8,3.8,0,0,1,3.787,3.787V13.46a3.816,3.816,0,0,1-1.112,2.689,3.762,3.762,0,0,1-2.675,1.114H6.981l-5.912,4.2A.677.677,0,0,1,0,20.915H0V3.787A3.8,3.8,0,0,1,3.787,0Zm9.12,4.283v8.21H10.768V9.047h-.623v3.447H8.006V4.283h2.139V7.22h.623V4.283Zm5.44,4.963H15.691v1.46a1.68,1.68,0,0,0,.065.589.26.26,0,0,0,.255.132.31.31,0,0,0,.314-.174,1.914,1.914,0,0,0,.079-.679v-.89h1.94v.5a4.384,4.384,0,0,1-.079.96,1.979,1.979,0,0,1-.368.716,1.794,1.794,0,0,1-.733.573,2.832,2.832,0,0,1-1.112.191,3.229,3.229,0,0,1-1.148-.188A1.769,1.769,0,0,1,13.749,11.2a4.677,4.677,0,0,1-.107-1.142V8.093A3.321,3.321,0,0,1,13.881,6.7a1.633,1.633,0,0,1,.78-.78,2.736,2.736,0,0,1,1.249-.272,2.788,2.788,0,0,1,1.423.328,1.8,1.8,0,0,1,.786.867,4.036,4.036,0,0,1,.225,1.519v.884ZM16.3,8.154V7.663a2.481,2.481,0,0,0-.056-.674.226.226,0,0,0-.233-.152c-.146,0-.236.042-.269.129a2.641,2.641,0,0,0-.053.7v.491H16.3ZM21.12,4.283v8.21H19.012V4.283Zm2.818,1.485-.036.6a1.937,1.937,0,0,1,.6-.542,1.466,1.466,0,0,1,.719-.177,1.354,1.354,0,0,1,.825.255,1.07,1.07,0,0,1,.432.592,5.211,5.211,0,0,1,.087,1.137v2.835a5.392,5.392,0,0,1-.109,1.305,1.094,1.094,0,0,1-.446.62,1.4,1.4,0,0,1-.814.23,1.45,1.45,0,0,1-.7-.177,1.931,1.931,0,0,1-.592-.531v1.541H21.858V5.768Zm.587,1.956a3.311,3.311,0,0,0-.048-.755c-.031-.087-.115-.132-.255-.132a.25.25,0,0,0-.264.152,2.683,2.683,0,0,0-.059.735v2.79a2.683,2.683,0,0,0,.062.761.256.256,0,0,0,.267.152.231.231,0,0,0,.247-.14,2.69,2.69,0,0,0,.048-.676V7.725Z" fill="#969392" fill-rule="evenodd"/>
</svg>
