<svg xmlns="http://www.w3.org/2000/svg" width="40.9" height="60.249" viewBox="0 0 40.9 60.249">
  <g id="ic_bronz3" transform="translate(0.241)">
    <path id="Path_502" data-name="Path 502" d="M-296.922,446.739l-5.332,21.282,9.028-6.114,5.154,9.561,4.638-18.98" transform="translate(302.816 -412.602)" fill="#d1a064" stroke="#73492f" stroke-width="1"/>
    <path id="Path_503" data-name="Path 503" d="M-293.233,448.606l-4.941,19.62,8.325-5.509,4.732,8.384,4.319-17.134" transform="translate(299.571 -414.086)" fill="none" stroke="#a26544" stroke-width="2"/>
    <path id="Path_504" data-name="Path 504" d="M-289.386,450.906l-4.621,18.127,7.677-5.154,4.336,7.784,4.088-15.959" transform="translate(296.258 -415.916)" fill="none" stroke="#fff" stroke-width="1"/>
    <path id="Path_507" data-name="Path 507" d="M-288.764,446.739l5.332,21.282-9.028-6.114-5.154,9.561-4.638-18.98" transform="translate(323.289 -412.807)" fill="#d1a064" stroke="#73492f" stroke-width="1"/>
    <path id="Path_508" data-name="Path 508" d="M-285.738,448.606l4.941,19.62-8.325-5.509-4.732,8.384-4.319-17.134" transform="translate(319.818 -414.291)" fill="none" stroke="#a26544" stroke-width="2"/>
    <path id="Path_509" data-name="Path 509" d="M-282.526,450.906l4.621,18.127-7.677-5.154-4.336,7.784-4.088-15.959" transform="translate(316.073 -416.12)" fill="none" stroke="#fff" stroke-width="1"/>
    <g id="Path_513" data-name="Path 513" transform="translate(0)" fill="#d1a064">
      <path d="M 19.96158599853516 39.42317581176758 C 17.33406639099121 39.42317581176758 14.78541564941406 38.90868759155273 12.3864164352417 37.89399719238281 C 10.06899642944336 36.9138069152832 7.987646102905273 35.5104866027832 6.20016622543335 33.72300720214844 C 4.412685871124268 31.93552589416504 3.009366035461426 29.85417556762695 2.029175996780396 27.53675651550293 C 1.014485955238342 25.13775634765625 0.4999960064888 22.5891056060791 0.4999960064888 19.96158599853516 C 0.4999960064888 17.33406639099121 1.014485955238342 14.78541564941406 2.029175996780396 12.3864164352417 C 3.009366035461426 10.06899642944336 4.412685871124268 7.987646102905273 6.20016622543335 6.20016622543335 C 7.987646102905273 4.412685871124268 10.06899642944336 3.009366035461426 12.3864164352417 2.029175996780396 C 14.78541564941406 1.014485955238342 17.33406639099121 0.4999960064888 19.96158599853516 0.4999960064888 C 22.5891056060791 0.4999960064888 25.13775634765625 1.014485955238342 27.53675651550293 2.029175996780396 C 29.85417556762695 3.009366035461426 31.93552589416504 4.412685871124268 33.72300720214844 6.20016622543335 C 35.5104866027832 7.987646102905273 36.9138069152832 10.06899642944336 37.89399719238281 12.3864164352417 C 38.90868759155273 14.78541564941406 39.42317581176758 17.33406639099121 39.42317581176758 19.96158599853516 C 39.42317581176758 22.5891056060791 38.90868759155273 25.13775634765625 37.89399719238281 27.53675651550293 C 36.9138069152832 29.85417556762695 35.5104866027832 31.93552589416504 33.72300720214844 33.72300720214844 C 31.93552589416504 35.5104866027832 29.85417556762695 36.9138069152832 27.53675651550293 37.89399719238281 C 25.13775634765625 38.90868759155273 22.5891056060791 39.42317581176758 19.96158599853516 39.42317581176758 Z" stroke="none"/>
      <path d="M 19.96158599853516 0.9999961853027344 C 17.40134620666504 0.9999961853027344 14.91822624206543 1.501197814941406 12.58118629455566 2.48968505859375 C 10.3233757019043 3.444656372070313 8.295436859130859 4.811996459960938 6.553714752197266 6.553714752197266 C 4.811996459960938 8.295436859130859 3.444656372070313 10.3233757019043 2.48968505859375 12.58118629455566 C 1.501197814941406 14.91822624206543 0.9999961853027344 17.40134620666504 0.9999961853027344 19.96158599853516 C 0.9999961853027344 22.52182579040527 1.501197814941406 25.00494575500488 2.48968505859375 27.34198570251465 C 3.444656372070313 29.59979629516602 4.811996459960938 31.62773513793945 6.553714752197266 33.36945724487305 C 8.295436859130859 35.11117553710938 10.3233757019043 36.478515625 12.58118629455566 37.43348693847656 C 14.91822624206543 38.42197418212891 17.40134620666504 38.92317581176758 19.96158599853516 38.92317581176758 C 22.52182579040527 38.92317581176758 25.00494575500488 38.42197418212891 27.34198570251465 37.43348693847656 C 29.59979629516602 36.478515625 31.62773513793945 35.11117553710938 33.36945724487305 33.36945724487305 C 35.11117553710938 31.62773513793945 36.478515625 29.59979629516602 37.43348693847656 27.34198570251465 C 38.42197418212891 25.00494575500488 38.92317581176758 22.52182579040527 38.92317581176758 19.96158599853516 C 38.92317581176758 17.40134620666504 38.42197418212891 14.91822624206543 37.43348693847656 12.58118629455566 C 36.478515625 10.3233757019043 35.11117553710938 8.295436859130859 33.36945724487305 6.553714752197266 C 31.62773513793945 4.811996459960938 29.59979629516602 3.444656372070313 27.34198570251465 2.48968505859375 C 25.00494575500488 1.501197814941406 22.52182579040527 0.9999961853027344 19.96158599853516 0.9999961853027344 M 19.96158599853516 -3.814697265625e-06 C 30.98606491088867 -3.814697265625e-06 39.92317581176758 8.937105178833008 39.92317581176758 19.96158599853516 C 39.92317581176758 30.98606491088867 30.98606491088867 39.92317581176758 19.96158599853516 39.92317581176758 C 8.937105178833008 39.92317581176758 -3.814697265625e-06 30.98606491088867 -3.814697265625e-06 19.96158599853516 C -3.814697265625e-06 8.937105178833008 8.937105178833008 -3.814697265625e-06 19.96158599853516 -3.814697265625e-06 Z" stroke="none" fill="#967663"/>
    </g>
    <g id="Ellipse_238" data-name="Ellipse 238" transform="translate(1.393 1.905)" fill="none" stroke="#707070" stroke-width="1">
      <circle cx="18.415" cy="18.415" r="18.415" stroke="none"/>
      <circle cx="18.415" cy="18.415" r="17.915" fill="none"/>
    </g>
    <g id="Ellipse_239" data-name="Ellipse 239" transform="translate(1.393 1.905)" fill="#d1a064" stroke="#fff" stroke-width="3">
      <circle cx="18.415" cy="18.415" r="18.415" stroke="none"/>
      <circle cx="18.415" cy="18.415" r="16.915" fill="none"/>
    </g>
    <g id="Ellipse_236" data-name="Ellipse 236" transform="translate(5.359 3.605)" fill="#fff" stroke="#707070" stroke-width="1">
      <ellipse cy="0.283" ry="0.283" stroke="none"/>
      <ellipse cy="0.283" rx="0.5" ry="0.217" fill="none"/>
    </g>
    <path id="Path_512" data-name="Path 512" d="M-265.882,304.239l1.459-1.637.97,1.987,1.987-.97.554,1.987,2.125-.647.37,2.357,2.126-.416v2.284h1.894l-.416,2.29,1.848.416-.739,1.941,1.663,1.109-1.155,1.663,1.756,1.386-1.525,1.248.924,1.71-1.663.924,1.017,2.126-2.126.37.733,2.362-2.229.105.249,2.385-2.115-.408-.241,2.256-2.264-.6-.486,2.131-2.014-1.052-.988,1.935-1.918-1.581-1.19,1.71-1.479-1.71-1.571,1.71-1.155-2.125-1.8,1.2-.878-2.218-2.033.6V328.8l-2.35.15.271-2.045-2.274-.137.749-2.219-2.218-.473,1.175-1.956-2.007-1.036,1.8-1.894-1.8-1.2,1.432-1.479-1.432-1.479,1.8-.97-.97-2.079,2.218-.508-.647-1.987,2.172-.3-.416-2.284,2.5.416v-2.357l2.31.647.323-1.987,2.079.97.832-1.987,1.895,1.432,1.479-1.736Z" transform="translate(287.383 -298.142)" fill="#fff"/>
    <path id="Path_501" data-name="Path 501" d="M-265.882,304.239l1.459-1.637.97,1.987,1.987-.97.554,1.987,2.125-.647.37,2.357,2.126-.416v2.284h1.894l-.416,2.29,1.848.416-.739,1.941,1.663,1.109-1.155,1.663,1.756,1.386-1.525,1.248.924,1.71-1.663.924,1.017,2.126-2.126.37.733,2.362-2.229.105.249,2.385-2.115-.408-.241,2.256-2.264-.6-.486,2.131-2.014-1.052-.988,1.935-1.918-1.581-1.19,1.71-1.479-1.71-1.571,1.71-1.155-2.125-1.8,1.2-.878-2.218-2.033.6V328.8l-2.35.15.271-2.045-2.274-.137.749-2.219-2.218-.473,1.175-1.956-2.007-1.036,1.8-1.894-1.8-1.2,1.432-1.479-1.432-1.479,1.8-.97-.97-2.079,2.218-.508-.647-1.987,2.172-.3-.416-2.284,2.5.416v-2.357l2.31.647.323-1.987,2.079.97.832-1.987,1.895,1.432,1.479-1.736Z" transform="translate(287.383 -297.733)" fill="#a26544"/>
  </g>
</svg>
