<svg xmlns="http://www.w3.org/2000/svg" width="43.455" height="64.861" viewBox="0 0 43.455 64.861">
  <g id="ic_bronz" transform="translate(0.202)">
    <path id="Path_502" data-name="Path 502" d="M-296.574,446.739l-5.679,22.944,9.616-6.591,5.49,10.308,4.941-20.463" transform="translate(302.852 -409.936)" fill="#f1ba2b" stroke="#717274" stroke-width="1"/>
    <path id="Path_503" data-name="Path 503" d="M-292.911,448.606l-5.262,21.152,8.868-5.94,5.04,9.039,4.6-18.472" transform="translate(299.662 -411.39)" fill="none" stroke="#b37634" stroke-width="2"/>
    <path id="Path_504" data-name="Path 504" d="M-289.085,450.906l-4.922,19.543,8.178-5.556,4.619,8.392,4.354-17.206" transform="translate(296.404 -413.183)" fill="none" stroke="#fff" stroke-width="1"/>
    <path id="Path_507" data-name="Path 507" d="M-287.886,446.739l5.679,22.944-9.616-6.591-5.49,10.308-4.941-20.463" transform="translate(324.659 -410.157)" fill="#f1ba2b" stroke="#717274" stroke-width="1"/>
    <path id="Path_508" data-name="Path 508" d="M-284.928,448.606l5.262,21.152-8.868-5.94-5.04,9.039-4.6-18.472" transform="translate(321.228 -411.611)" fill="none" stroke="#b37634" stroke-width="2"/>
    <path id="Path_509" data-name="Path 509" d="M-281.778,450.906l4.922,19.543-8.178-5.556-4.619,8.392-4.354-17.206" transform="translate(317.511 -413.404)" fill="none" stroke="#fff" stroke-width="1"/>
    <g id="Path_513" data-name="Path 513" transform="translate(0 0)" fill="#f1ba2b">
      <path d="M 21.26181221008301 42.54121780395508 C 18.45952224731445 42.54121780395508 15.74126243591309 41.98579788208008 13.182541847229 40.89036560058594 C 10.71045207977295 39.83203887939453 8.490092277526855 38.31673812866211 6.583132266998291 36.38656616210938 C 4.67575216293335 34.45597839355469 3.178242206573486 32.20783615112305 2.1322021484375 29.70461654663086 C 1.049152255058289 27.11283683776855 0.5000022053718567 24.35933685302734 0.5000022053718567 21.52060699462891 C 0.5000022053718567 18.68187713623047 1.049152255058289 15.92837715148926 2.1322021484375 13.33659744262695 C 3.178242206573486 10.83337688446045 4.67575216293335 8.585236549377441 6.583132266998291 6.654646873474121 C 8.490092277526855 4.72447681427002 10.71045207977295 3.209177017211914 13.182541847229 2.1508469581604 C 15.74126243591309 1.055416941642761 18.45952224731445 0.4999969899654388 21.26181221008301 0.4999969899654388 C 24.06411170959473 0.4999969899654388 26.78237152099609 1.055416941642761 29.34109306335449 2.1508469581604 C 31.81317138671875 3.209177017211914 34.03353118896484 4.72447681427002 35.94050216674805 6.654646873474121 C 37.84787368774414 8.585236549377441 39.34538269042969 10.83337688446045 40.39142227172852 13.33659744262695 C 41.47447204589844 15.92837715148926 42.02362060546875 18.68187713623047 42.02362060546875 21.52060699462891 C 42.02362060546875 24.35933685302734 41.47447204589844 27.11283683776855 40.39142227172852 29.70461654663086 C 39.34538269042969 32.20783615112305 37.84787368774414 34.45597839355469 35.94050216674805 36.38656616210938 C 34.03353118896484 38.31673812866211 31.81317138671875 39.83203887939453 29.34109306335449 40.89036560058594 C 26.78237152099609 41.98579788208008 24.06411170959473 42.54121780395508 21.26181221008301 42.54121780395508 Z" stroke="none"/>
      <path d="M 21.26181221008301 0.9999961853027344 C 18.52755165100098 0.9999961853027344 15.87549209594727 1.541847229003906 13.37931251525879 2.610488891601563 C 10.96699142456055 3.643238067626953 8.800090789794922 5.122116088867188 6.938812255859375 7.006057739257813 C 5.076702117919922 8.890827178955078 3.614742279052734 11.08558654785156 2.593544006347656 13.52938652038574 C 1.536140441894531 16.05977630615234 1.000003814697266 18.7484073638916 1.000003814697266 21.52060699462891 C 1.000003814697266 24.29280662536621 1.536140441894531 26.98143768310547 2.593544006347656 29.51182746887207 C 3.614742279052734 31.95562744140625 5.076702117919922 34.15038681030273 6.938812255859375 36.03515625 C 8.800090789794922 37.91909790039063 10.96699142456055 39.39797592163086 13.37931251525879 40.43072509765625 C 15.87549209594727 41.49936676025391 18.52755165100098 42.04121780395508 21.26181221008301 42.04121780395508 C 23.99607276916504 42.04121780395508 26.64812088012695 41.49936676025391 29.14430236816406 40.43072509765625 C 31.55663299560547 39.39797592163086 33.72353363037109 37.91909790039063 35.58481216430664 36.03515625 C 37.4469108581543 34.15038681030273 38.90887069702148 31.95562744140625 39.93008422851563 29.51182746887207 C 40.98748397827148 26.98143768310547 41.52362060546875 24.29280662536621 41.52362060546875 21.52060699462891 C 41.52362060546875 18.7484073638916 40.98748397827148 16.05977630615234 39.93008422851563 13.52938652038574 C 38.90887069702148 11.08558654785156 37.4469108581543 8.890827178955078 35.58481216430664 7.006057739257813 C 33.72353363037109 5.122116088867188 31.55663299560547 3.643238067626953 29.14430236816406 2.610488891601563 C 26.64812088012695 1.541847229003906 23.99607276916504 0.9999961853027344 21.26181221008301 0.9999961853027344 M 21.26181221008301 -3.814697265625e-06 C 33.0043830871582 -3.814697265625e-06 42.52362060546875 9.635105133056641 42.52362060546875 21.52060699462891 C 42.52362060546875 33.40610504150391 33.0043830871582 43.04121780395508 21.26181221008301 43.04121780395508 C 9.519233703613281 43.04121780395508 3.814697265625e-06 33.40610504150391 3.814697265625e-06 21.52060699462891 C 3.814697265625e-06 9.635105133056641 9.519233703613281 -3.814697265625e-06 21.26181221008301 -3.814697265625e-06 Z" stroke="none" fill="#b37634"/>
    </g>
    <g id="Ellipse_238" data-name="Ellipse 238" transform="translate(1.811 1.767)" fill="none" stroke="#707070" stroke-width="1">
      <ellipse cx="19.615" cy="19.854" rx="19.615" ry="19.854" stroke="none"/>
      <ellipse cx="19.615" cy="19.854" rx="19.115" ry="19.354" fill="none"/>
    </g>
    <g id="Path_514" data-name="Path 514" transform="translate(1.526 1.766)" fill="#f1d02b">
      <path d="M 19.73532104492188 38.45107650756836 C 14.86792087554932 38.45107650756836 10.29090118408203 36.53156661987305 6.847401142120361 33.04615783691406 C 3.399080991744995 29.55585670471191 1.500001072883606 24.91395568847656 1.500001072883606 19.97553634643555 C 1.500001072883606 15.03711605072021 3.399080991744995 10.39521598815918 6.847401142120361 6.904926300048828 C 10.29090118408203 3.419506311416626 14.86792087554932 1.499996304512024 19.73532104492188 1.499996304512024 C 22.69908142089844 1.499996304512024 25.52298164367676 2.199586391448975 28.12859153747559 3.579316377639771 C 30.63233184814453 4.905116558074951 32.85679244995117 6.854396343231201 34.56148147583008 9.21640682220459 C 36.76000213623047 12.26083660125732 37.97064208984375 16.08171653747559 37.97064208984375 19.97553634643555 C 37.97064208984375 24.91395568847656 36.07155990600586 29.55585670471191 32.62324142456055 33.04615783691406 C 29.17974090576172 36.53156661987305 24.60272026062012 38.45107650756836 19.73532104492188 38.45107650756836 Z" stroke="none"/>
      <path d="M 19.73532104492188 2.999996185302734 C 15.27202033996582 2.999996185302734 11.07395172119141 4.761184692382813 7.914451599121094 7.959146499633789 C 4.745319366455078 11.16685676574707 3 15.43435668945313 3 19.97553634643555 C 3 24.51671600341797 4.745319366455078 28.78421592712402 7.914451599121094 31.9919261932373 C 11.07395172119141 35.18988800048828 15.27202033996582 36.95107650756836 19.73532104492188 36.95107650756836 C 24.1986198425293 36.95107650756836 28.39669036865234 35.18988800048828 31.55619049072266 31.9919261932373 C 34.72531890869141 28.78421592712402 36.47064208984375 24.51671600341797 36.47064208984375 19.97553634643555 C 36.47064208984375 16.39446640014648 35.36083221435547 12.88545608520508 33.34514999389648 10.0942268371582 C 30.09133148193359 5.585746765136719 25.13074111938477 2.999996185302734 19.73532104492188 2.999996185302734 M 19.73532104492188 -3.814697265625e-06 C 26.28593063354492 -3.814697265625e-06 32.09112167358398 3.2303466796875 35.77778244018555 8.338577270507813 C 38.06397247314453 11.50439643859863 39.47064208984375 15.57369613647461 39.47064208984375 19.97553634643555 C 39.47064208984375 31.00771713256836 30.63484191894531 39.95107650756836 19.73532104492188 39.95107650756836 C 8.835800170898438 39.95107650756836 0 31.00771713256836 0 19.97553634643555 C 0 8.94334602355957 8.835800170898438 -3.814697265625e-06 19.73532104492188 -3.814697265625e-06 Z" stroke="none" fill="#f5d374"/>
    </g>
    <g id="Ellipse_236" data-name="Ellipse 236" transform="translate(5.432 4.21)" fill="#fff" stroke="#707070" stroke-width="1">
      <circle stroke="none"/>
      <circle r="0.5" fill="none"/>
    </g>
    <path id="Path_512" data-name="Path 512" d="M-264.776,304.39l1.554-1.765,1.034,2.142,2.116-1.046.591,2.142,2.264-.7.394,2.541,2.264-.448v2.462h2.018l-.443,2.469,1.969.448-.787,2.092,1.772,1.2-1.23,1.793,1.87,1.494-1.624,1.345.984,1.843-1.772,1,1.083,2.292-2.264.4.781,2.546-2.375.113.265,2.571-2.253-.439-.257,2.432-2.412-.648-.518,2.3-2.145-1.134-1.053,2.086-2.043-1.7-1.267,1.843-1.575-1.843-1.673,1.843-1.23-2.292-1.919,1.3-.935-2.391-2.165.648v-2.441l-2.5.162.288-2.2-2.422-.148.8-2.392-2.362-.51,1.252-2.109-2.137-1.117,1.919-2.042-1.919-1.3,1.526-1.594-1.526-1.594,1.919-1.046-1.034-2.242,2.362-.548-.689-2.142,2.313-.327-.443-2.462,2.658.448v-2.541l2.461.7.345-2.142,2.215,1.046.886-2.142,2.018,1.544,1.575-1.872Z" transform="translate(287.678 -297.818)" fill="#fff"/>
    <path id="Path_501" data-name="Path 501" d="M-264.776,304.39l1.554-1.765,1.034,2.142,2.116-1.046.591,2.142,2.264-.7.394,2.541,2.264-.448v2.462h2.018l-.443,2.469,1.969.448-.787,2.092,1.772,1.2-1.23,1.793,1.87,1.494-1.624,1.345.984,1.843-1.772,1,1.083,2.292-2.264.4.781,2.546-2.375.113.265,2.571-2.253-.439-.257,2.432-2.412-.648-.518,2.3-2.145-1.134-1.053,2.086-2.043-1.7-1.267,1.843-1.575-1.843-1.673,1.843-1.23-2.292-1.919,1.3-.935-2.391-2.165.648v-2.441l-2.5.162.288-2.2-2.422-.148.8-2.392-2.362-.51,1.252-2.109-2.137-1.117,1.919-2.042-1.919-1.3,1.526-1.594-1.526-1.594,1.919-1.046-1.034-2.242,2.362-.548-.689-2.142,2.313-.327-.443-2.462,2.658.448v-2.541l2.461.7.345-2.142,2.215,1.046.886-2.142,2.018,1.544,1.575-1.872Z" transform="translate(287.678 -297.376)" fill="#f1ba2b"/>
  </g>
</svg>
