<svg xmlns="http://www.w3.org/2000/svg" width="41.453" height="61.078" viewBox="0 0 41.453 61.078">
  <g id="ic_bronz2" transform="translate(0.233)">
    <path id="Path_502" data-name="Path 502" d="M-296.847,446.739l-5.407,21.582,9.155-6.2,5.226,9.7,4.7-19.248" transform="translate(302.823 -412.121)" fill="#d1d3d4" stroke="#717274" stroke-width="1"/>
    <path id="Path_503" data-name="Path 503" d="M-293.163,448.606l-5.01,19.9,8.443-5.587,4.8,8.5,4.38-17.375" transform="translate(299.591 -413.6)" fill="none" stroke="#96989b" stroke-width="2"/>
    <path id="Path_504" data-name="Path 504" d="M-289.321,450.906l-4.686,18.383,7.786-5.226,4.4,7.894,4.145-16.184" transform="translate(296.289 -415.423)" fill="none" stroke="#fff" stroke-width="1"/>
    <path id="Path_507" data-name="Path 507" d="M-288.574,446.739l5.407,21.582-9.155-6.2-5.226,9.7-4.7-19.248" transform="translate(323.585 -412.329)" fill="#d1d3d4" stroke="#717274" stroke-width="1"/>
    <path id="Path_508" data-name="Path 508" d="M-285.563,448.606l5.01,19.9-8.443-5.587-4.8,8.5-4.38-17.375" transform="translate(320.123 -413.808)" fill="none" stroke="#96989b" stroke-width="2"/>
    <path id="Path_509" data-name="Path 509" d="M-282.365,450.906l4.686,18.383-7.786-5.226-4.4,7.894-4.145-16.184" transform="translate(316.384 -415.631)" fill="none" stroke="#fff" stroke-width="1"/>
    <g id="Path_513" data-name="Path 513" transform="translate(0)" fill="#d1d3d4">
      <path d="M 20.24273681640625 39.98547744750977 C 17.57726669311523 39.98547744750977 14.99178695678711 39.46355819702148 12.55812644958496 38.43419647216797 C 10.20723724365234 37.43985748291016 8.095816612243652 36.01626586914063 6.282516956329346 34.20296859741211 C 4.469216823577881 32.38966751098633 3.045616865158081 30.27824592590332 2.051276922225952 27.92734718322754 C 1.021926760673523 25.49368667602539 0.4999968111515045 22.90820693969727 0.4999968111515045 20.24273681640625 C 0.4999968111515045 17.57726669311523 1.021926760673523 14.99178695678711 2.051276922225952 12.55812644958496 C 3.045616865158081 10.20723724365234 4.469216823577881 8.095816612243652 6.282516956329346 6.282516956329346 C 8.095816612243652 4.469216823577881 10.20723724365234 3.045616865158081 12.55812644958496 2.051276922225952 C 14.99178695678711 1.021926760673523 17.57726669311523 0.4999968111515045 20.24273681640625 0.4999968111515045 C 22.90820693969727 0.4999968111515045 25.49368667602539 1.021926760673523 27.92734718322754 2.051276922225952 C 30.27824592590332 3.045616865158081 32.38966751098633 4.469216823577881 34.20296859741211 6.282516956329346 C 36.01626586914063 8.095816612243652 37.43985748291016 10.20723724365234 38.43419647216797 12.55812644958496 C 39.46355819702148 14.99178695678711 39.98547744750977 17.57726669311523 39.98547744750977 20.24273681640625 C 39.98547744750977 22.90820693969727 39.46355819702148 25.49368667602539 38.43419647216797 27.92734718322754 C 37.43985748291016 30.27824592590332 36.01626586914063 32.38966751098633 34.20296859741211 34.20296859741211 C 32.38966751098633 36.01626586914063 30.27824592590332 37.43985748291016 27.92734718322754 38.43419647216797 C 25.49368667602539 39.46355819702148 22.90820693969727 39.98547744750977 20.24273681640625 39.98547744750977 Z" stroke="none"/>
      <path d="M 20.24273681640625 0.9999961853027344 C 17.64454650878906 0.9999961853027344 15.12459754943848 1.508636474609375 12.75290679931641 2.511775970458984 C 10.46160697937012 3.480915069580078 8.403606414794922 4.868526458740234 6.636066436767578 6.636066436767578 C 4.868526458740234 8.403606414794922 3.480915069580078 10.46160697937012 2.511775970458984 12.75290679931641 C 1.508636474609375 15.12459754943848 0.9999961853027344 17.64454650878906 0.9999961853027344 20.24273681640625 C 0.9999961853027344 22.84092712402344 1.508636474609375 25.36087799072266 2.511775970458984 27.73257637023926 C 3.480915069580078 30.02386665344238 4.868526458740234 32.08186721801758 6.636066436767578 33.84940719604492 C 8.403606414794922 35.61695861816406 10.46160697937012 37.00456619262695 12.75290679931641 37.97369766235352 C 15.12459754943848 38.97683715820313 17.64454650878906 39.48547744750977 20.24273681640625 39.48547744750977 C 22.84092712402344 39.48547744750977 25.36087799072266 38.97683715820313 27.73257637023926 37.97369766235352 C 30.02386665344238 37.00456619262695 32.08186721801758 35.61695861816406 33.84940719604492 33.84940719604492 C 35.61695861816406 32.08186721801758 37.00456619262695 30.02386665344238 37.97369766235352 27.73257637023926 C 38.97683715820313 25.36087799072266 39.48547744750977 22.84092712402344 39.48547744750977 20.24273681640625 C 39.48547744750977 17.64454650878906 38.97683715820313 15.12459754943848 37.97369766235352 12.75290679931641 C 37.00456619262695 10.46160697937012 35.61695861816406 8.403606414794922 33.84940719604492 6.636066436767578 C 32.08186721801758 4.868526458740234 30.02386665344238 3.480915069580078 27.73257637023926 2.511775970458984 C 25.36087799072266 1.508636474609375 22.84092712402344 0.9999961853027344 20.24273681640625 0.9999961853027344 M 20.24273681640625 -3.814697265625e-06 C 31.4224967956543 -3.814697265625e-06 40.48547744750977 9.062986373901367 40.48547744750977 20.24273681640625 C 40.48547744750977 31.4224967956543 31.4224967956543 40.48547744750977 20.24273681640625 40.48547744750977 C 9.062986373901367 40.48547744750977 -3.814697265625e-06 31.4224967956543 -3.814697265625e-06 20.24273681640625 C -3.814697265625e-06 9.062986373901367 9.062986373901367 -3.814697265625e-06 20.24273681640625 -3.814697265625e-06 Z" stroke="none" fill="#6a6a6b"/>
    </g>
    <g id="Ellipse_238" data-name="Ellipse 238" transform="translate(2.006 2.141)" fill="none" stroke="#707070" stroke-width="1">
      <circle cx="18.5" cy="18.5" r="18.5" stroke="none"/>
      <circle cx="18.5" cy="18.5" r="18" fill="none"/>
    </g>
    <g id="Path_514" data-name="Path 514" transform="translate(1.453 1.661)" fill="#d1d3d4">
      <path d="M 18.7894115447998 36.07882308959961 C 14.17124176025391 36.07882308959961 9.82949161529541 34.28041076660156 6.56395149230957 31.01487159729004 C 3.29841160774231 27.74933242797852 1.500001549720764 23.4075813293457 1.500001549720764 18.7894115447998 C 1.500001549720764 14.17124176025391 3.29841160774231 9.82949161529541 6.56395149230957 6.56395149230957 C 9.82949161529541 3.29841160774231 14.17124176025391 1.500001549720764 18.7894115447998 1.500001549720764 C 23.4075813293457 1.500001549720764 27.74933242797852 3.29841160774231 31.01487159729004 6.56395149230957 C 34.28041076660156 9.82949161529541 36.07882308959961 14.17124176025391 36.07882308959961 18.7894115447998 C 36.07882308959961 23.4075813293457 34.28041076660156 27.74933242797852 31.01487159729004 31.01487159729004 C 27.74933242797852 34.28041076660156 23.4075813293457 36.07882308959961 18.7894115447998 36.07882308959961 Z" stroke="none"/>
      <path d="M 18.7894115447998 3 C 14.5719108581543 3 10.60684204101563 4.642391204833984 7.624610900878906 7.624610900878906 C 4.642391204833984 10.60684204101563 3 14.5719108581543 3 18.7894115447998 C 3 23.00692176818848 4.642391204833984 26.97198104858398 7.624610900878906 29.9542121887207 C 10.60684204101563 32.93643951416016 14.5719108581543 34.57882308959961 18.7894115447998 34.57882308959961 C 23.00692176818848 34.57882308959961 26.97199249267578 32.93643951416016 29.9542121887207 29.9542121887207 C 32.93643951416016 26.97199249267578 34.57882308959961 23.00692176818848 34.57882308959961 18.7894115447998 C 34.57882308959961 14.5719108581543 32.93643951416016 10.60684204101563 29.9542121887207 7.624610900878906 C 26.97198104858398 4.642391204833984 23.00692176818848 3 18.7894115447998 3 M 18.7894115447998 0 C 29.1665210723877 0 37.57882308959961 8.412311553955078 37.57882308959961 18.7894115447998 C 37.57882308959961 29.1665210723877 29.1665210723877 37.57882308959961 18.7894115447998 37.57882308959961 C 8.412311553955078 37.57882308959961 0 29.1665210723877 0 18.7894115447998 C 0 8.412311553955078 8.412311553955078 0 18.7894115447998 0 Z" stroke="none" fill="#fff"/>
    </g>
    <g id="Ellipse_236" data-name="Ellipse 236" transform="translate(5.006 4.141)" fill="#fff" stroke="#707070" stroke-width="1">
      <circle stroke="none"/>
      <circle r="0.5" fill="none"/>
    </g>
    <path id="Path_512" data-name="Path 512" d="M-265.643,304.266l1.479-1.66.984,2.015,2.015-.984.562,2.015,2.155-.656.375,2.39,2.155-.422v2.316H-254l-.422,2.323,1.874.422-.75,1.968,1.687,1.125-1.171,1.687,1.781,1.406-1.546,1.265.937,1.734-1.687.937,1.031,2.155-2.155.375.744,2.4-2.261.107.252,2.418-2.145-.413-.245,2.288-2.3-.609-.493,2.161-2.042-1.066-1,1.962-1.945-1.6-1.207,1.734-1.5-1.734-1.593,1.734-1.171-2.155-1.827,1.218-.89-2.249-2.062.609v-2.3l-2.383.152.274-2.073-2.306-.139.76-2.25-2.249-.48,1.192-1.984-2.035-1.051,1.827-1.921-1.827-1.218,1.453-1.5-1.453-1.5,1.827-.984-.984-2.109,2.249-.515-.656-2.015,2.2-.308-.422-2.316,2.53.422V305l2.343.656.328-2.015,2.109.984.843-2.015,1.921,1.453,1.5-1.76Z" transform="translate(287.447 -298.084)" fill="#fff"/>
    <path id="Path_501" data-name="Path 501" d="M-265.643,304.266l1.479-1.66.984,2.015,2.015-.984.562,2.015,2.155-.656.375,2.39,2.155-.422v2.316H-254l-.422,2.323,1.874.422-.75,1.968,1.687,1.125-1.171,1.687,1.781,1.406-1.546,1.265.937,1.734-1.687.937,1.031,2.155-2.155.375.744,2.4-2.261.107.252,2.418-2.145-.413-.245,2.288-2.3-.609-.493,2.161-2.042-1.066-1,1.962-1.945-1.6-1.207,1.734-1.5-1.734-1.593,1.734-1.171-2.155-1.827,1.218-.89-2.249-2.062.609v-2.3l-2.383.152.274-2.073-2.306-.139.76-2.25-2.249-.48,1.192-1.984-2.035-1.051,1.827-1.921-1.827-1.218,1.453-1.5-1.453-1.5,1.827-.984-.984-2.109,2.249-.515-.656-2.015,2.2-.308-.422-2.316,2.53.422V305l2.343.656.328-2.015,2.109.984.843-2.015,1.921,1.453,1.5-1.76Z" transform="translate(287.447 -297.669)" fill="#939598"/>
  </g>
</svg>
