<svg xmlns="http://www.w3.org/2000/svg" width="23.811" height="23.663" viewBox="0 0 23.811 23.663">
  <g id="Group_99" data-name="Group 99" transform="translate(-1165 -717)">
    <g id="Rectangle_39" data-name="Rectangle 39" transform="translate(1165 718.632)" fill="#3e3837" stroke="#979493" stroke-width="1">
      <rect width="17.135" height="22.031" stroke="none"/>
      <rect x="0.5" y="0.5" width="16.135" height="21.031" fill="none"/>
    </g>
    <path id="Path_543" data-name="Path 543" d="M12954.674,41.9l-11.124,10.9-2.429,4.856,5.591-2.993,10.276-10.56Z" transform="translate(-11768.679 678.281)" fill="#979493" stroke="#979493" stroke-linejoin="round" stroke-width="1"/>
    <path id="Path_544" data-name="Path 544" d="M12954.895,44.257l2.427,2.654" transform="translate(-11771.215 677.848)" fill="#3e3837" stroke="#979493" stroke-width="1"/>
    <path id="Path_545" data-name="Path 545" d="M12945,54.707l2.428,2.485" transform="translate(-11769.394 675.925)" fill="#3e3837" stroke="#979493" stroke-width="1"/>
    <path id="Path_546" data-name="Path 546" d="M12935.723,45.226h11.635" transform="translate(-11767.686 677.67)" fill="#3e3837" stroke="#979493" stroke-linecap="round" stroke-width="1"/>
    <path id="Path_547" data-name="Path 547" d="M12935.723,45.226h11.635" transform="translate(-11767.686 680.118)" fill="#3e3837" stroke="#979493" stroke-linecap="round" stroke-width="1"/>
    <g id="Rectangle_36" data-name="Rectangle 36" transform="translate(1168.264 726.791)" fill="#3e3837" stroke="#979493" stroke-linejoin="round" stroke-width="1">
      <rect width="3.264" height="3.264" stroke="none"/>
      <rect x="0.5" y="0.5" width="2.264" height="2.264" fill="none"/>
    </g>
    <g id="Rectangle_37" data-name="Rectangle 37" transform="translate(1168.264 731.687)" fill="#3e3837" stroke="#979493" stroke-linejoin="round" stroke-width="1">
      <rect width="3.264" height="3.264" stroke="none"/>
      <rect x="0.5" y="0.5" width="2.264" height="2.264" fill="none"/>
    </g>
    <g id="Rectangle_38" data-name="Rectangle 38" transform="translate(1169.08 717)" fill="#3e3837" stroke="#979493" stroke-linejoin="round" stroke-width="1">
      <rect width="8.975" height="4.08" stroke="none"/>
      <rect x="0.5" y="0.5" width="7.975" height="3.08" fill="none"/>
    </g>
  </g>
</svg>
