<svg xmlns="http://www.w3.org/2000/svg" xmlns:xlink="http://www.w3.org/1999/xlink" width="28.648" height="26.237" viewBox="0 0 28.648 26.237">
  <defs>
    <clipPath id="clip-path">
      <rect id="Rectangle_53" data-name="Rectangle 53" width="18" height="15" transform="translate(143 41.405)" fill="red" stroke="#707070" stroke-width="1"/>
    </clipPath>
  </defs>
  <g id="Group_715" data-name="Group 715" transform="translate(-1319.269 -341.763)">
    <g id="Group_106" data-name="Group 106" transform="translate(82.269 87)">
      <g id="Group_84" data-name="Group 84" transform="translate(478 -85.237)">
        <g id="iconfinder_285641_id_user_icon" transform="translate(759 340)">
          <path id="Path_69" data-name="Path 69" d="M4.865,1034.4A2.869,2.869,0,0,0,2,1037.265v14.324a2.869,2.869,0,0,0,2.865,2.865H27.784a2.869,2.869,0,0,0,2.865-2.865v-14.324a2.869,2.869,0,0,0-2.865-2.865Z" transform="translate(-2 -1032.967)" fill="#95a5a6"/>
          <path id="Path_70" data-name="Path 70" d="M4.865,5A2.865,2.865,0,0,0,2,7.865V22.189a2.864,2.864,0,0,0,2.865,2.865H27.784a2.864,2.864,0,0,0,2.865-2.865V7.865A2.864,2.864,0,0,0,27.784,5Z" transform="translate(-2 -5)" fill="#bdc3c7"/>
          <rect id="Rectangle_44" data-name="Rectangle 44" width="10.146" height="14.324" transform="translate(2.984 2.971)" fill="#ecf0f1"/>
          <path id="Path_71" data-name="Path 71" d="M8.745,8A3.588,3.588,0,0,0,6.6,14.225,6.378,6.378,0,0,0,4,16.2v4.7H14.027V16.151a6.5,6.5,0,0,0-2.6-1.925A3.586,3.586,0,0,0,8.745,8Z" transform="translate(-1.135 -3.706)" fill="#2c3e50"/>
          <path id="Path_72" data-name="Path 72" d="M13,8V9.432h5.73V8Zm0,2.865V12.3H23.027V10.865Zm0,2.865v1.432H23.027V13.73Z" transform="translate(2.757 -3.703)" fill="#7f8c8d"/>
        </g>
      </g>
    </g>
    <g id="Mask_Group_13" data-name="Mask Group 13" transform="translate(1184 311.595)" clip-path="url(#clip-path)">
      <path id="iconfinder_387517_character_math_minus_sign_stop_icon" d="M40.108,30.791A7.606,7.606,0,1,0,47.714,38.4,7.6,7.6,0,0,0,40.108,30.791Zm5.387,8.895H34.559a.711.711,0,0,1-.7-.7V37.842a.711.711,0,0,1,.7-.7H45.495a.711.711,0,0,1,.7.7v1.145A.7.7,0,0,1,45.495,39.686Z" transform="translate(111.901 10.402)" fill="red"/>
    </g>
  </g>
</svg>
