<svg xmlns="http://www.w3.org/2000/svg" width="26.773" height="28.557" viewBox="0 0 26.773 28.557">
  <g id="technical-support-svgrepo-com" transform="translate(-2.574)">
    <g id="Group_101" data-name="Group 101" transform="translate(2.574)">
      <path id="Path_549" data-name="Path 549" d="M28.259,21.728c-.233-.543-.621-.621-1.086-.776-2.25-.853-4.113-1.242-6.286-2.017a1.621,1.621,0,0,1-.776-1.552c0-.466-.078-.7-.621-.7-.155,0-.078,0-.155-.31a10.88,10.88,0,0,1-.155-1.708.658.658,0,0,1,.233-.388,5.128,5.128,0,0,0,.931-2.949s.155.078.31-.31c.155-.466.234-.62.388-1.163.155-.388.233-1.242-.31-1.242-.31.155-.233,0-.233-.388V5.355a2.562,2.562,0,0,0-1.164-1.94c-.7-.466-.931-.621-1.242-.854s-.233-.543,0-.854a1.619,1.619,0,0,1,.466-.31,5.915,5.915,0,0,1,3.1,5.121V8.071A1.976,1.976,0,0,0,21.2,9.545a2.383,2.383,0,0,0,.233,1.164l-.388,2.1a.656.656,0,0,0-.31.543.621.621,0,0,0,1.242,0,.594.594,0,0,0-.155-.388l.388-1.785c.466-.078.854-.776.854-1.63a1.989,1.989,0,0,0-.543-1.474V6.519a6.519,6.519,0,0,0-13.038,0V8.07a1.988,1.988,0,0,0-.543,1.474c0,.931.388,1.63.931,1.63.466,0,.854-.7.854-1.63a1.974,1.974,0,0,0-.466-1.474V6.518a5.713,5.713,0,0,1,8.3-5.121c-.154,0-1.784.233-2.405.388A7.643,7.643,0,0,0,12.74,3.337a3.173,3.173,0,0,0-1.4,2.173V8.38c0,.233,0,.388-.233.31-.621,0-.233,1.086-.233,1.164a12.168,12.168,0,0,0,.388,1.242c.078.387.233.31.233.31a7.608,7.608,0,0,0,1.086,2.95.592.592,0,0,1,.155.388c-.078.543-.078,1.164-.155,1.707,0,.078-.078.31-.233.31-.466,0-.543.31-.543.7a2.087,2.087,0,0,1-.776,1.552c-1.086.466-4.889,1.63-6.13,2.018-.854.154-1.087.466-1.242.776L2.574,24.6c4.812,0,7.3,3.027,12.262,3.8A6.826,6.826,0,0,0,16,28.557a6.821,6.821,0,0,0,1.164-.156c5.121-.853,8.692-3.8,12.184-3.8Z" transform="translate(-2.574)" fill="#979493"/>
    </g>
  </g>
</svg>
