<svg xmlns="http://www.w3.org/2000/svg" width="27.555" height="27.935" viewBox="0 0 27.555 27.935">
  <g id="Group_727" data-name="Group 727" transform="translate(-1323.093 -430.043)">
    <path id="iconfinder_2205231_launch_online_post_send_start_icon" d="M8.611,15.713v8.73L15.5,19.205l6.889,8.73L27.555,0,0,13.968Z" transform="translate(1323.093 430.043)" fill="#fff"/>
    <path id="iconfinder_387517_character_math_minus_sign_stop_icon" d="M10.784,3.6a6.984,6.984,0,1,0,6.984,6.984A6.978,6.978,0,0,0,10.784,3.6Zm4.946,8.167H5.69a.653.653,0,0,1-.641-.641V10.074a.653.653,0,0,1,.641-.641H15.73a.653.653,0,0,1,.641.641v1.052A.642.642,0,0,1,15.73,11.767Z" transform="translate(1331.764 433.427)" fill="red"/>
  </g>
</svg>
