<svg xmlns="http://www.w3.org/2000/svg" width="24.844" height="23.63" viewBox="0 0 24.844 23.63">
  <g id="Ethereum_ETH" transform="translate(-5 -5)">
    <g id="Group_674" data-name="Group 674" transform="translate(5 5)">
      <g id="Group_673" data-name="Group 673">
        <g id="Group_672" data-name="Group 672">
          <g id="Group_658" data-name="Group 658">
            <g id="Group_647" data-name="Group 647" transform="translate(0.297 0.297)">
              <g id="Group_646" data-name="Group 646">
                <g id="Group_645" data-name="Group 645">
                  <ellipse id="Ellipse_105" data-name="Ellipse 105" cx="12.125" cy="11.518" rx="12.125" ry="11.518" fill="#fff"/>
                </g>
              </g>
            </g>
            <g id="Group_651" data-name="Group 651" transform="translate(1.485 0.891)">
              <g id="Group_650" data-name="Group 650">
                <g id="Group_649" data-name="Group 649">
                  <g id="Group_648" data-name="Group 648">
                    <path id="Path_321" data-name="Path 321" d="M30.265,17.465a11.29,11.29,0,0,0-8.511-10.75A12.573,12.573,0,0,0,19.446,6.5,11.68,11.68,0,0,0,7.5,17.895a11.139,11.139,0,0,0,3.912,8.433,12.024,12.024,0,0,0,7.132,2.317A11.472,11.472,0,0,0,30.265,17.465Z" transform="translate(-7.5 -6.5)" fill="#ffe57f"/>
                  </g>
                </g>
              </g>
            </g>
            <g id="Group_654" data-name="Group 654" transform="translate(1.165 1.679)">
              <g id="Group_653" data-name="Group 653">
                <g id="Group_652" data-name="Group 652">
                  <path id="Path_322" data-name="Path 322" d="M33.232,7.825c4.835,1.933,8.109,5.642,8.109,9.9,0,6.254-7.05,11.324-15.746,11.324a21.006,21.006,0,0,1-6.448-.993,20.641,20.641,0,0,0,7.636,1.421c8.7,0,15.746-5.07,15.746-11.324C42.53,13.554,38.712,9.6,33.232,7.825Z" transform="translate(-19.148 -7.825)" fill="#ffd740"/>
                </g>
              </g>
            </g>
            <g id="Group_657" data-name="Group 657">
              <g id="Group_656" data-name="Group 656">
                <g id="Group_655" data-name="Group 655">
                  <path id="Path_323" data-name="Path 323" d="M17.422,28.63C10.572,28.63,5,23.33,5,16.815S10.572,5,17.422,5s12.422,5.3,12.422,11.815S24.272,28.63,17.422,28.63Zm0-23.192c-6.6,0-11.962,5.1-11.962,11.377s5.366,11.377,11.962,11.377,11.962-5.1,11.962-11.377S24.018,5.438,17.422,5.438Z" transform="translate(-5 -5)" fill="#37474f"/>
                </g>
              </g>
            </g>
          </g>
          <g id="Group_671" data-name="Group 671" transform="translate(2.377 2.377)">
            <g id="Group_661" data-name="Group 661" transform="translate(0.297 0.297)">
              <g id="Group_660" data-name="Group 660">
                <g id="Group_659" data-name="Group 659">
                  <ellipse id="Ellipse_106" data-name="Ellipse 106" cx="9.748" cy="9.141" rx="9.748" ry="9.141" fill="#ffd740"/>
                </g>
              </g>
            </g>
            <g id="Group_664" data-name="Group 664" transform="translate(0.169 0.297)">
              <g id="Group_663" data-name="Group 663">
                <g id="Group_662" data-name="Group 662">
                  <path id="Path_324" data-name="Path 324" d="M10.688,18.853c0-4.946,5.986-8.955,13.369-8.955a19.06,19.06,0,0,1,5.365.753A18.627,18.627,0,0,0,22.869,9.5C15.486,9.5,9.5,13.51,9.5,18.455c0,3.667,3.292,6.818,8,8.2C13.437,25.122,10.688,22.2,10.688,18.853Z" transform="translate(-9.5 -9.5)" fill="#ffca28"/>
                </g>
              </g>
            </g>
            <g id="Group_667" data-name="Group 667" transform="translate(0 1.421)">
              <g id="Group_666" data-name="Group 666">
                <g id="Group_665" data-name="Group 665">
                  <path id="Path_325" data-name="Path 325" d="M32.889,11.392c4.067,1.536,6.816,4.454,6.816,7.8,0,4.946-5.986,8.955-13.369,8.955a19.06,19.06,0,0,1-5.365-.753,18.627,18.627,0,0,0,6.553,1.151c7.383,0,13.369-4.01,13.369-8.955C40.893,15.927,37.6,12.777,32.889,11.392Z" transform="translate(-20.971 -11.392)" fill="#ffe57f"/>
                </g>
              </g>
            </g>
            <g id="Group_670" data-name="Group 670">
              <g id="Group_669" data-name="Group 669">
                <g id="Group_668" data-name="Group 668">
                  <path id="Path_326" data-name="Path 326" d="M19.045,27.876C13.506,27.876,9,23.643,9,18.438S13.506,9,19.045,9s10.045,4.234,10.045,9.438S24.585,27.876,19.045,27.876Zm0-18.466c-5.3,0-9.609,4.05-9.609,9.028s4.31,9.028,9.609,9.028,9.609-4.05,9.609-9.028S24.344,9.41,19.045,9.41Z" transform="translate(-9 -9)" fill="#37474f"/>
                </g>
              </g>
            </g>
          </g>
        </g>
      </g>
    </g>
    <g id="Group_699" data-name="Group 699" transform="translate(10.702 5.871)">
      <g id="Group_684" data-name="Group 684" transform="translate(0)">
        <g id="Group_677" data-name="Group 677" transform="translate(0.409 0.576)">
          <g id="Group_676" data-name="Group 676">
            <g id="Group_675" data-name="Group 675">
              <path id="Path_327" data-name="Path 327" d="M21.379,25.019l6.309-10.468L34,25.019l-6.308,3.728Z" transform="translate(-21.379 -14.551)" fill="#fff"/>
            </g>
          </g>
        </g>
        <g id="Group_680" data-name="Group 680" transform="translate(1.412 1.152)">
          <g id="Group_679" data-name="Group 679">
            <g id="Group_678" data-name="Group 678">
              <path id="Path_328" data-name="Path 328" d="M34.273,25.308l-5.9-9.788L23.067,25.9,28.373,28.8Z" transform="translate(-23.067 -15.52)" fill="#ffe57f"/>
            </g>
          </g>
        </g>
        <g id="Group_683" data-name="Group 683">
          <g id="Group_682" data-name="Group 682">
            <g id="Group_681" data-name="Group 681">
              <path id="Path_329" data-name="Path 329" d="M27.408,14.734l5.9,9.789-5.9,3.487-5.9-3.487,5.9-9.789Zm0-1.152L20.69,24.729,27.408,28.7l6.718-3.971L27.408,13.582Z" transform="translate(-20.69 -13.582)" fill="#37474f"/>
            </g>
          </g>
        </g>
      </g>
      <g id="Group_688" data-name="Group 688" transform="translate(0 8.318)">
        <g id="Group_687" data-name="Group 687">
          <g id="Group_686" data-name="Group 686">
            <g id="Group_685" data-name="Group 685">
              <path id="Path_330" data-name="Path 330" d="M27.408,28.227l5.4,2.273-5.4,3.191-5.4-3.191,5.4-2.273Zm0-.645L20.69,30.41l6.718,3.971,6.718-3.971-6.718-2.828Z" transform="translate(-20.69 -27.582)" fill="#37474f"/>
            </g>
          </g>
        </g>
      </g>
      <g id="Group_698" data-name="Group 698" transform="translate(0.001 12.42)">
        <g id="Group_691" data-name="Group 691" transform="translate(1.048 0.964)">
          <g id="Group_690" data-name="Group 690">
            <g id="Group_689" data-name="Group 689">
              <path id="Path_331" data-name="Path 331" d="M22.456,36.109l5.669,3.349,5.673-3.35L28.126,44.1Z" transform="translate(-22.456 -36.108)" fill="#fff"/>
            </g>
          </g>
        </g>
        <g id="Group_694" data-name="Group 694" transform="translate(2.692 1.929)">
          <g id="Group_693" data-name="Group 693">
            <g id="Group_692" data-name="Group 692">
              <path id="Path_332" data-name="Path 332" d="M33.871,37.732l-4.321,2.551-.3.178-.3-.178-3.723-2.551,4.026,6.51Z" transform="translate(-25.222 -37.732)" fill="#ffe57f"/>
            </g>
          </g>
        </g>
        <g id="Group_697" data-name="Group 697">
          <g id="Group_696" data-name="Group 696">
            <g id="Group_695" data-name="Group 695">
              <path id="Path_333" data-name="Path 333" d="M32.032,36.414l-4.623,6.51-4.62-6.51,4.318,2.551.3.178.3-.178,4.321-2.551Zm2.1-1.929L27.41,38.454l-6.718-3.969,6.719,9.466h0l6.721-9.467Z" transform="translate(-20.692 -34.485)" fill="#37474f"/>
            </g>
          </g>
        </g>
      </g>
    </g>
    <g id="Group_702" data-name="Group 702" transform="translate(17.125 8.381)">
      <g id="Group_701" data-name="Group 701">
        <g id="Group_700" data-name="Group 700">
          <rect id="Rectangle_461" data-name="Rectangle 461" width="0.594" height="13.542" fill="#37474f"/>
        </g>
      </g>
    </g>
    <g id="Group_705" data-name="Group 705" transform="translate(17.125 19.929)">
      <g id="Group_704" data-name="Group 704">
        <g id="Group_703" data-name="Group 703">
          <rect id="Rectangle_462" data-name="Rectangle 462" width="0.594" height="4.679" fill="#37474f"/>
        </g>
      </g>
    </g>
  </g>
</svg>
