<svg id="g16" xmlns="http://www.w3.org/2000/svg" xmlns:xlink="http://www.w3.org/1999/xlink" width="23.627" height="23.63" viewBox="0 0 23.627 23.63">
  <defs>
    <linearGradient id="linear-gradient" x2="0" y2="1" gradientUnits="objectBoundingBox">
      <stop offset="0" stop-color="#f9aa4b"/>
      <stop offset="1" stop-color="#f7931a"/>
    </linearGradient>
  </defs>
  <path id="coin" d="M23.273,14.673A11.811,11.811,0,1,1,14.67.354a11.812,11.812,0,0,1,8.6,14.319Z" transform="translate(0 0)" fill="url(#linear-gradient)"/>
  <path id="symbol" d="M11.517,6.189c.235-1.572-.962-2.417-2.6-2.981l.531-2.13L8.153.755,7.636,2.829C7.3,2.744,6.945,2.664,6.6,2.584L7.118.5,5.822.174,5.291,2.3c-.282-.064-.559-.128-.828-.195V2.1L2.677,1.656,2.332,3.04s.962.22.941.234a.69.69,0,0,1,.6.754l-.6,2.426a1.074,1.074,0,0,1,.135.043l-.137-.034-.848,3.4a.472.472,0,0,1-.594.308c.013.019-.942-.235-.942-.235L.243,11.419l1.687.421c.314.079.621.161.924.239l-.536,2.154,1.295.323.531-2.131c.354.1.7.185,1.033.268l-.529,2.121,1.3.323.536-2.15c2.21.418,3.873.25,4.572-1.75A2.274,2.274,0,0,0,9.862,8.092a2.067,2.067,0,0,0,1.655-1.9ZM8.555,10.342c-.4,1.61-3.111.74-3.99.521L5.277,8.01C6.156,8.229,8.974,8.664,8.555,10.342Zm.4-4.177C8.59,7.63,6.335,6.886,5.6,6.7l.645-2.588C6.98,4.3,9.337,4.638,8.956,6.166Z" transform="translate(5.504 3.943)" fill="#fff"/>
</svg>
