<svg xmlns="http://www.w3.org/2000/svg" width="16.535" height="13.75" viewBox="0 0 16.535 13.75">
  <path id="rect3044-174-4-7-5-0-4-2" d="M61.687,640.262a.62.62,0,0,0-.618.623v2.658a.616.616,0,0,0,.618.618H65.12a.619.619,0,0,0,.621-.618v-2.658a.623.623,0,0,0-.621-.623Zm6.184,0a.62.62,0,0,0-.618.623v2.658a.616.616,0,0,0,.618.618H71.3a.619.619,0,0,0,.621-.618v-2.658a.623.623,0,0,0-.621-.623Zm5.679,0a.62.62,0,0,0-.618.623v2.658a.616.616,0,0,0,.618.618h3.433a.619.619,0,0,0,.621-.618v-2.658a.623.623,0,0,0-.621-.623Zm-11.862,4.949a.619.619,0,0,0-.618.621v2.66a.616.616,0,0,0,.618.618H65.12a.619.619,0,0,0,.621-.618v-2.66a.621.621,0,0,0-.621-.621Zm6.184,0a.619.619,0,0,0-.618.621v2.66a.616.616,0,0,0,.618.618H71.3a.619.619,0,0,0,.621-.618v-2.66a.621.621,0,0,0-.621-.621Zm5.679,0a.619.619,0,0,0-.618.621v2.66a.616.616,0,0,0,.618.618h3.433a.619.619,0,0,0,.621-.618v-2.66a.621.621,0,0,0-.621-.621Zm-11.862,4.9a.62.62,0,0,0-.618.623v2.658a.617.617,0,0,0,.618.62H65.12a.62.62,0,0,0,.621-.62v-2.658a.623.623,0,0,0-.621-.623Zm6.184,0a.62.62,0,0,0-.618.623v2.658a.617.617,0,0,0,.618.62H71.3a.62.62,0,0,0,.621-.62v-2.658a.623.623,0,0,0-.621-.623Zm5.679,0a.62.62,0,0,0-.618.623v2.658a.617.617,0,0,0,.618.62h3.433a.62.62,0,0,0,.621-.62v-2.658a.623.623,0,0,0-.621-.623Z" transform="translate(-61.069 -640.262)" fill="#fff"/>
</svg>
