<svg id="layer1" xmlns="http://www.w3.org/2000/svg" width="15.142" height="13.75" viewBox="0 0 15.142 13.75">
  <path id="rect3044-174-4-7-5-0-4-2-4" d="M68.079,636.485a.606.606,0,0,0-.6.609v5.2a.6.6,0,0,0,.6.6H73.8a.6.6,0,0,0,.607-.6v-5.2a.608.608,0,0,0-.607-.609Zm8.208,0a.606.606,0,0,0-.6.609v5.2a.6.6,0,0,0,.6.6h5.723a.6.6,0,0,0,.607-.6v-5.2a.608.608,0,0,0-.607-.609Zm-8.208,7.34a.606.606,0,0,0-.6.609v5.2a.6.6,0,0,0,.6.6H73.8a.6.6,0,0,0,.607-.6v-5.2a.608.608,0,0,0-.607-.609Zm8.208,0a.606.606,0,0,0-.6.609v5.2a.6.6,0,0,0,.6.6h5.723a.6.6,0,0,0,.607-.6v-5.2a.608.608,0,0,0-.607-.609Z" transform="translate(-67.474 -636.485)"/>
</svg>
