<svg id="Layer_25" data-name="Layer 25" xmlns="http://www.w3.org/2000/svg" width="16.562" height="15.5" viewBox="0 0 16.562 15.5">
  <path id="Path_4" data-name="Path 4" d="M12.863,13.071a.554.554,0,0,0,.354-.127l2.5-2.087h1.019a4.429,4.429,0,1,0,0-8.857H13.416a4.429,4.429,0,0,0-1.107,8.713v1.8a.55.55,0,0,0,.554.554Zm3.875-9.964a3.321,3.321,0,1,1,0,6.643H15.52a.554.554,0,0,0-.354.127l-1.749,1.456V10.259a.554.554,0,0,0-.476-.554,3.321,3.321,0,0,1,.476-6.6Z" transform="translate(-9 -2)" fill="#101820"/>
  <rect id="Rectangle_5" data-name="Rectangle 5" width="1.107" height="1.107" transform="translate(5.523 3.875)" fill="#101820"/>
  <rect id="Rectangle_6" data-name="Rectangle 6" width="1.107" height="1.107" transform="translate(8.291 3.875)" fill="#101820"/>
  <rect id="Rectangle_7" data-name="Rectangle 7" width="1.107" height="1.107" transform="translate(2.756 3.875)" fill="#101820"/>
  <path id="Path_5" data-name="Path 5" d="M8.264,21.35a.55.55,0,0,0,.554-.554v-1.8a4.429,4.429,0,0,0,.709-8.3A.554.554,0,1,0,9.072,11.7a3.321,3.321,0,0,1-.886,6.311.554.554,0,0,0-.476.554v1.074L5.961,18.178a.554.554,0,0,0-.354-.149H4.389a3.288,3.288,0,0,1-2.375-1.007.556.556,0,0,0-.8.775,4.429,4.429,0,0,0,3.172,1.34H5.407l2.5,2.087A.554.554,0,0,0,8.264,21.35Z" transform="translate(4.456 -5.85)" fill="#101820"/>
</svg>
