<svg xmlns="http://www.w3.org/2000/svg" xmlns:xlink="http://www.w3.org/1999/xlink" width="39.06" height="27.39" viewBox="0 0 39.06 27.39">
  <defs>
    <clipPath id="clip-path">
      <rect id="Rectangle_100" data-name="Rectangle 100" width="18" height="15" transform="translate(0 0.323)" fill="red" stroke="#707070" stroke-width="1"/>
    </clipPath>
  </defs>
  <g id="Group_736" data-name="Group 736" transform="translate(-1323.94 -345.61)">
    <g id="iconfinder_4171947_cash_currency_down_money_pay_icon" transform="translate(1323.94 345.61)">
      <path id="Path_133" data-name="Path 133" d="M.023,3.872H2.238L2.247,0h6.08l.021,3.872h2.367L5.376,8.4Z" transform="translate(9.807)"/>
      <path id="Path_134" data-name="Path 134" d="M1.77,5.742V5.02a3.451,3.451,0,0,1-.758-.176,2.063,2.063,0,0,1-.554-.3,1.239,1.239,0,0,1-.34-.387A.932.932,0,0,1,0,3.713.975.975,0,0,1,.1,3.281a1.029,1.029,0,0,1,.293-.354A2.137,2.137,0,0,1,.9,2.637,5.381,5.381,0,0,1,1.658,2.4c.21-.056.39-.108.541-.157A2.89,2.89,0,0,0,2.568,2.1a.7.7,0,0,0,.211-.144.231.231,0,0,0,.067-.16A.264.264,0,0,0,2.8,1.648a.388.388,0,0,0-.142-.126A.893.893,0,0,0,2.4,1.434a2.129,2.129,0,0,0-.4-.034,4.408,4.408,0,0,0-.487.026c-.147.016-.279.039-.4.064S.89,1.543.8,1.569s-.166.051-.231.07L.283.847C.364.819.453.791.551.766S.756.718.874.7s.245-.038.385-.052.292-.024.457-.029V0h.967V.664a3.45,3.45,0,0,1,.708.17,2.028,2.028,0,0,1,.526.277,1.183,1.183,0,0,1,.328.365.894.894,0,0,1,.114.435.822.822,0,0,1-.128.453,1.19,1.19,0,0,1-.363.351,2.768,2.768,0,0,1-.563.271,6.623,6.623,0,0,1-.726.212c-.183.044-.341.087-.474.132a1.867,1.867,0,0,0-.327.14.6.6,0,0,0-.189.157.3.3,0,0,0-.061.184A.287.287,0,0,0,1.6,4a.526.526,0,0,0,.2.137,1.251,1.251,0,0,0,.3.084,2.424,2.424,0,0,0,.388.029,4.4,4.4,0,0,0,.471-.026c.152-.016.3-.04.438-.069s.272-.062.4-.1.238-.076.342-.117l.3.827a2.878,2.878,0,0,1-.329.11c-.124.034-.261.065-.407.092s-.3.05-.461.067-.325.029-.492.034v.672H1.77Z" transform="translate(12.976 9.342)"/>
      <path id="Path_135" data-name="Path 135" d="M8.9,0l1.642,1.337H5.09q.016.047.028.1t.021.1q.009.049.013.1c0,.033,0,.067,0,.1a1.3,1.3,0,0,1-.2.675,1.894,1.894,0,0,1-.54.552,2.78,2.78,0,0,1-.8.373,3.452,3.452,0,0,1-.972.137l-.133,0-.131-.008-.129-.012-.127-.017L2.046,8.761l.128-.017.13-.012.132-.008.134,0a3.415,3.415,0,0,1,.975.139,2.713,2.713,0,0,1,.793.378,1.855,1.855,0,0,1,.532.562,1.317,1.317,0,0,1,.19.689c0,.022,0,.043,0,.065s-.005.043-.009.064-.008.042-.012.063l-.014.063H25.214l-.014-.063c0-.021-.009-.042-.013-.063s-.007-.042-.009-.063,0-.043,0-.064a1.314,1.314,0,0,1,.188-.689,1.847,1.847,0,0,1,.53-.562,2.7,2.7,0,0,1,.792-.378,3.411,3.411,0,0,1,.974-.139l.073,0,.072.005.071.007.071.007-.092-5.3-.071.006-.071.007-.071.005-.073,0a3.456,3.456,0,0,1-.972-.137,2.789,2.789,0,0,1-.8-.373,1.9,1.9,0,0,1-.542-.552,1.307,1.307,0,0,1-.205-.675c0-.034,0-.067,0-.1s.007-.066.013-.1.013-.065.021-.1.017-.064.027-.1H19.78L21.305,0h8.686l.247,12.263H0L.211,0H8.9Z" transform="translate(0 5.754)"/>
    </g>
    <g id="Mask_Group_25" data-name="Mask Group 25" transform="translate(1345 357.677)" clip-path="url(#clip-path)">
      <g id="iconfinder_387518_character_math_multiple_sign_icon" transform="translate(1.315 0.108)">
        <path id="Path_112" data-name="Path 112" d="M36.648,30.791a7.568,7.568,0,1,0,7.568,7.568A7.561,7.561,0,0,0,36.648,30.791Zm4.184,10.434a.559.559,0,0,1,0,.783l-.57.57a.559.559,0,0,1-.783,0l-2.831-2.831-2.831,2.831a.559.559,0,0,1-.783,0l-.57-.57a.559.559,0,0,1,0-.783l2.831-2.831-2.849-2.831a.559.559,0,0,1,0-.783l.57-.57a.559.559,0,0,1,.783,0l2.831,2.831,2.831-2.831a.559.559,0,0,1,.783,0l.57.57a.559.559,0,0,1,0,.783L38,38.394Z" transform="translate(-29.08 -30.791)" fill="red"/>
      </g>
    </g>
  </g>
</svg>
