<svg xmlns="http://www.w3.org/2000/svg" width="27.555" height="18.4" viewBox="0 0 27.555 18.4">
  <path id="iconfinder_1243703_money_withdraw_cash_currency_payment_icon" d="M25.335,5.8H2.62A2.588,2.588,0,0,0,.2,8.5v6.2a2.6,2.6,0,0,0,2.514,2.7H5.041a.762.762,0,0,0,.745-.8.712.712,0,0,0-.745-.8H2.62A1.175,1.175,0,0,1,1.5,14.6V8.5A1.178,1.178,0,0,1,2.62,7.3H25.242a1.175,1.175,0,0,1,1.117,1.2v6a1.178,1.178,0,0,1-1.117,1.2H22.263a.762.762,0,0,0-.745.8.712.712,0,0,0,.745.8h2.979a2.6,2.6,0,0,0,2.514-2.7v-6A2.619,2.619,0,0,0,25.335,5.8Zm-.652,4a.764.764,0,0,0-.745-.8H3.924a.762.762,0,0,0-.745.8.712.712,0,0,0,.745.8H23.939A.764.764,0,0,0,24.683,9.8Zm-4.375,1.5a.664.664,0,0,0-.931.4A15.652,15.652,0,0,0,19,15.2c-.093,2.5-.186,5.9-1.676,7.5H6.716c1.3-2.2,1.4-5.4,1.489-7.8a13.876,13.876,0,0,1,.186-2.5.718.718,0,0,0-.279-1,.625.625,0,0,0-.931.3,7.842,7.842,0,0,0-.372,3.1c-.093,2.6-.186,6.5-2.048,8.1a.818.818,0,0,0-.186.8.705.705,0,0,0,.652.5H17.7a.686.686,0,0,0,.465-.2c2.141-2,2.234-5.9,2.327-8.8a10.916,10.916,0,0,1,.279-2.9A.841.841,0,0,0,20.308,11.3Zm-6.7,3.2A2.739,2.739,0,0,0,16.584,12H10.626A2.86,2.86,0,0,0,13.605,14.5Z" transform="translate(-0.2 -5.8)" fill="#fff"/>
</svg>
