<svg xmlns="http://www.w3.org/2000/svg" xmlns:xlink="http://www.w3.org/1999/xlink" width="32.777" height="33.526" viewBox="0 0 32.777 33.526">
  <defs>
    <clipPath id="clip-path">
      <rect id="Rectangle_32" data-name="Rectangle 32" width="13" height="11" transform="translate(0.5 0)" fill="red" stroke="#707070" stroke-width="1"/>
    </clipPath>
  </defs>
  <g id="Group_728" data-name="Group 728" transform="translate(-1315.223 -247.474)">
    <g id="_x32_89_x2C__Dollar_x2C__Globe_x2C__euro_x2C__money_convert" transform="translate(1315.223 247.474)">
      <g id="Group_21" data-name="Group 21">
        <path id="Path_25" data-name="Path 25" d="M260.578,187.658v3.412H263.8a9.207,9.207,0,0,0-.5-1.088A4,4,0,0,0,260.578,187.658Z" transform="translate(-245.653 -177.645)"/>
        <path id="Path_26" data-name="Path 26" d="M289.851,194.43a8.238,8.238,0,0,0-4.481-3.137,7.629,7.629,0,0,1,1.982,3.137Z" transform="translate(-269.051 -180.998)"/>
        <path id="Path_27" data-name="Path 27" d="M260.578,244.567h4.051a13.753,13.753,0,0,0-.617-3.9h-3.434v3.9Z" transform="translate(-245.739 -226.489)"/>
        <path id="Path_28" data-name="Path 28" d="M260.577,303.924h3.449a13.7,13.7,0,0,0,.6-3.805h-4.051v3.805Z" transform="translate(-245.739 -281.281)"/>
        <path id="Path_29" data-name="Path 29" d="M289.947,358.312h-2.525a7.666,7.666,0,0,1-2.007,3.2A8.24,8.24,0,0,0,289.947,358.312Z" transform="translate(-269.099 -334.928)"/>
        <path id="Path_30" data-name="Path 30" d="M318.318,300.118h-3.244a14.377,14.377,0,0,1-.57,3.805h2.716A8.156,8.156,0,0,0,318.318,300.118Z" transform="translate(-296.303 -281.28)"/>
        <path id="Path_31" data-name="Path 31" d="M260.578,361.786c1.319-.18,2.5-1.524,3.239-3.475h-3.239Z" transform="translate(-245.655 -334.773)"/>
        <path id="Path_32" data-name="Path 32" d="M203.184,300.118h-4.052a13.785,13.785,0,0,0,.588,3.805h3.464v-3.805Z" transform="translate(-188.089 -281.28)"/>
        <path id="Path_33" data-name="Path 33" d="M147.927,244.567H151.2a14.607,14.607,0,0,1,.583-3.9h-2.709A8.19,8.19,0,0,0,147.927,244.567Z" transform="translate(-140.037 -226.489)"/>
        <path id="Path_34" data-name="Path 34" d="M151.764,303.924a14.533,14.533,0,0,1-.56-3.805h-3.276a8.132,8.132,0,0,0,1.1,3.805Z" transform="translate(-140.036 -281.281)"/>
        <path id="Path_35" data-name="Path 35" d="M203.183,240.666h-3.441a13.861,13.861,0,0,0-.611,3.9h4.052v-3.9Z" transform="translate(-188.088 -226.489)"/>
        <path id="Path_36" data-name="Path 36" d="M171.461,193.133a6.371,6.371,0,0,1,1.349-1.751,8.271,8.271,0,0,0-4.474,3.13h2.511A9.894,9.894,0,0,1,171.461,193.133Z" transform="translate(-159.224 -181.08)"/>
        <path id="Path_37" data-name="Path 37" d="M172.139,361.506a6.373,6.373,0,0,1-1.349-1.747,9.943,9.943,0,0,1-.64-1.447H167.61A8.272,8.272,0,0,0,172.139,361.506Z" transform="translate(-158.546 -334.927)"/>
        <path id="Path_38" data-name="Path 38" d="M212.894,361.787v-3.476h-3.256a9.178,9.178,0,0,0,.526,1.156A3.983,3.983,0,0,0,212.894,361.787Z" transform="translate(-197.881 -334.773)"/>
        <path id="Path_39" data-name="Path 39" d="M213.228,187.653a3.983,3.983,0,0,0-2.729,2.324,9.155,9.155,0,0,0-.5,1.089h3.228Z" transform="translate(-198.219 -177.64)"/>
        <path id="Path_40" data-name="Path 40" d="M209.885,67.51a3.8,3.8,0,1,0-3.83-3.8A3.8,3.8,0,0,0,209.885,67.51Zm-1.235-2.632a.3.3,0,0,1,.408-.132,1.237,1.237,0,0,0,1.262.009c.062-.044.205-.163.185-.313-.023-.17-.247-.349-.6-.477-1.062-.373-1.278-1-1.139-1.421a1,1,0,0,1,.784-.614V61.38a.3.3,0,1,1,.607,0V61.9a3.006,3.006,0,0,1,.625.126.3.3,0,1,1-.179.579c-.78-.241-1.206-.033-1.26.132-.045.135.124.434.767.66.794.289.965.73,1,.968a.945.945,0,0,1-.436.888,1.475,1.475,0,0,1-.514.228v.563a.3.3,0,1,1-.607,0v-.527a2.171,2.171,0,0,1-.768-.229A.3.3,0,0,1,208.651,64.878Z" transform="translate(-194.916 -59.912)"/>
        <path id="Path_41" data-name="Path 41" d="M395.946,245.6a3.814,3.814,0,1,0,3.8,3.83A3.819,3.819,0,0,0,395.946,245.6Zm.4,2.936a.3.3,0,0,1,0,.607h-1.384a1.934,1.934,0,0,0,0,.543h1.388a.3.3,0,1,1,0,.607h-1.2a1.851,1.851,0,0,0,1.667,1.009.3.3,0,0,1,0,.607,2.448,2.448,0,0,1-2.329-1.616h-.716a.3.3,0,1,1,0-.607h.58q-.012-.126-.013-.256a2.538,2.538,0,0,1,.017-.288h-.584a.3.3,0,0,1,0-.607h.73a2.483,2.483,0,0,1,2.315-1.616.3.3,0,0,1,0,.607,1.868,1.868,0,0,0-1.651,1.009Z" transform="translate(-369.838 -230.953)"/>
        <path id="Path_42" data-name="Path 42" d="M27.97,249.426a3.8,3.8,0,1,0-3.8,3.8A3.819,3.819,0,0,0,27.97,249.426ZM25.935,247.4l-1.524,2.031v.311h.879a.3.3,0,1,1,0,.607h-.879v.295h.879a.3.3,0,0,1,0,.607h-.879v.66a.3.3,0,1,1-.607,0v-.66h-.752a.3.3,0,0,1,0-.607H23.8v-.295h-.752a.3.3,0,1,1,0-.607H23.8v-.317L22.4,247.392a.3.3,0,0,1,.5-.345l1.221,1.766,1.332-1.776a.3.3,0,0,1,.485.364Z" transform="translate(-20.372 -230.953)"/>
        <path id="Path_43" data-name="Path 43" d="M316.882,240.666h-2.693a14.438,14.438,0,0,1,.594,3.9h3.244A8.211,8.211,0,0,0,316.882,240.666Z" transform="translate(-296.011 -226.489)"/>
        <path id="Path_44" data-name="Path 44" d="M327.326,149.624a12.025,12.025,0,0,1,5.456,5.972.3.3,0,1,0,.56-.233,12.634,12.634,0,0,0-5.732-6.274.3.3,0,1,0-.284.536Z" transform="translate(-308.526 -142.034)"/>
        <path id="Path_45" data-name="Path 45" d="M103.557,153.551a.3.3,0,0,0,.4-.165,11.947,11.947,0,0,1,5.88-6.213.3.3,0,0,0-.264-.546,12.553,12.553,0,0,0-6.177,6.529A.3.3,0,0,0,103.557,153.551Z" transform="translate(-98.345 -139.767)"/>
        <path id="Path_46" data-name="Path 46" d="M120.9,353.308c-.115-.066-.248.006-.3.16-1.434,4.507-4.7,7.362-8.321,7.274-3.547-.059-6.714-2.949-8.069-7.363-.048-.155-.18-.229-.3-.165a.347.347,0,0,0-.123.4c1.424,4.64,4.754,7.677,8.481,7.739l.171,0a7.657,7.657,0,0,0,5.129-2.081,12.474,12.474,0,0,0,3.444-5.563A.349.349,0,0,0,120.9,353.308Z" transform="translate(-97.456 -330.041)"/>
      </g>
    </g>
    <g id="Mask_Group_7" data-name="Mask Group 7" transform="translate(1334.5 270)" clip-path="url(#clip-path)">
      <g id="iconfinder_387518_character_math_multiple_sign_icon" transform="translate(1.019 -0.057)">
        <path id="Path_56" data-name="Path 56" d="M34.609,30.791a5.529,5.529,0,1,0,5.529,5.529A5.524,5.524,0,0,0,34.609,30.791Zm3.057,7.623a.408.408,0,0,1,0,.572l-.416.416a.408.408,0,0,1-.572,0l-2.068-2.068L32.54,39.4a.408.408,0,0,1-.572,0l-.416-.416a.408.408,0,0,1,0-.572l2.068-2.068-2.081-2.068a.408.408,0,0,1,0-.572l.416-.416a.408.408,0,0,1,.572,0L34.6,35.357l2.068-2.068a.408.408,0,0,1,.572,0l.416.416a.408.408,0,0,1,0,.572L35.6,36.345Z" transform="translate(-29.08 -30.791)" fill="red"/>
      </g>
    </g>
  </g>
</svg>
