<svg xmlns="http://www.w3.org/2000/svg" width="27.555" height="27.334" viewBox="0 0 27.555 27.334">
  <path id="iconfinder_3802010_call_customer_phone_service_support_icon" d="M28.555,18.425A3.1,3.1,0,0,0,26.3,15.458l-3.962-1.124V13.184a3.973,3.973,0,0,0,1.081-1.626,2.221,2.221,0,0,0,1.424-.7,2.195,2.195,0,0,0,.565-1.483h.012V6.731a5.772,5.772,0,0,0-11.545,0V9.377h.012a2.2,2.2,0,0,0,.565,1.483,2.225,2.225,0,0,0,1.424.7,3.97,3.97,0,0,0,1.107,1.649v1.127l-3.962,1.124a3.1,3.1,0,0,0-2.254,2.967V20.76a1.636,1.636,0,0,1-.758-.415l-.964-.958a1.68,1.68,0,0,1,0-2.387l.521-.518a2.539,2.539,0,0,0,.757-1.815v-.084a2.557,2.557,0,0,0-.639-1.69l-1.939-2.2A2.6,2.6,0,0,0,4.1,10.452L2.423,11.908a4.116,4.116,0,0,0-.888,5.142,27.937,27.937,0,0,0,9.8,10.086l1,.606a4.09,4.09,0,0,0,5.183-.787l1.5-1.7a2.54,2.54,0,0,0,.584-2.214h8.962Zm-4.83-2.781L22.185,18.4l-1.879-1.555L22,15.156Zm.462-5.379a1.331,1.331,0,0,1-.56.356c.011-.12.019-.241.019-.364V8.149a1.334,1.334,0,0,1,.882,1.1A1.308,1.308,0,0,1,24.187,10.266ZM19.649,1.882a4.873,4.873,0,0,1,4.884,4.85v.919a2.344,2.344,0,0,0-1.408-.478h-.26a4.092,4.092,0,0,1-2.9-1.193l-.314-.312-.314.312a4.092,4.092,0,0,1-2.9,1.193H16.1a2.34,2.34,0,0,0-1.332.477V6.731A4.873,4.873,0,0,1,19.649,1.882Zm-4.538,8.384a1.307,1.307,0,0,1-.34-1.021,1.334,1.334,0,0,1,.882-1.1v2.109c0,.123.008.244.019.364A1.335,1.335,0,0,1,15.111,10.266Zm1.43-.008V8.049a4.971,4.971,0,0,0,3.108-1.16,4.971,4.971,0,0,0,3.108,1.16v2.209a3.108,3.108,0,0,1-6.216,0Zm3.108,3.968a3.988,3.988,0,0,0,1.8-.431v.664l-1.8,1.789-1.776-1.763v-.677A3.984,3.984,0,0,0,19.649,14.226Zm-2.349.936,1.692,1.68L17.113,18.4l-1.536-2.745ZM7.078,11.274l1.939,2.2a1.678,1.678,0,0,1,.42,1.11v.084a1.665,1.665,0,0,1-.111.588L4.962,10.923a1.7,1.7,0,0,1,2.116.351Zm9.768,15.1a3.2,3.2,0,0,1-4.052.615l-1-.606a27.053,27.053,0,0,1-9.486-9.765,3.238,3.238,0,0,1,.7-4.045l1.258-1.093L8.809,15.99l-.39.388a2.556,2.556,0,0,0,0,3.634l.964.958a2.6,2.6,0,0,0,3.66,0l.39-.388,4.543,4.511Zm1.69-1.973-4.364-4.333a1.707,1.707,0,0,1,.592-.11h.084a1.7,1.7,0,0,1,1.118.417L18.181,22.3a1.669,1.669,0,0,1,.354,2.1Zm9.132-2.239H24.99V19.076H24.1v3.086h-4.88a2.574,2.574,0,0,0-.456-.526l-2.215-1.925a2.6,2.6,0,0,0-1.7-.635h-.084a2.577,2.577,0,0,0-1.828.752l-.521.518a1.639,1.639,0,0,1-.758.415V18.425a2.215,2.215,0,0,1,1.61-2.119L14.7,15.9l2.157,3.855L19.2,17.813V21.28h.888V17.813l2.348,1.942L24.6,15.893l1.456.413a2.215,2.215,0,0,1,1.61,2.119v3.736Z" transform="translate(-1 -1)" fill="#fff"/>
</svg>
