<svg xmlns="http://www.w3.org/2000/svg" width="27.555" height="27.935" viewBox="0 0 27.555 27.935">
  <g id="Group_738" data-name="Group 738" transform="translate(-1323.093 -340.043)">
    <path id="iconfinder_2205231_launch_online_post_send_start_icon" d="M8.611,15.713v8.73L15.5,19.205l6.889,8.73L27.555,0,0,13.968Z" transform="translate(1323.093 340.043)"/>
    <g id="iconfinder_2205229_buoy_customer_life_saver_support_icon" transform="translate(1336.417 349)">
      <path id="Path_281" data-name="Path 281" d="M7.064,0a6.553,6.553,0,0,0-4.35,1.651L5.055,3.992a3.229,3.229,0,0,1,4.017,0l2.341-2.341A6.549,6.549,0,0,0,7.064,0Z" transform="translate(-0.481)" fill="#f2a610"/>
      <path id="Path_282" data-name="Path 282" d="M5.055,11.148,2.714,13.489a6.555,6.555,0,0,0,8.7,0L9.072,11.149a3.229,3.229,0,0,1-4.017,0Z" transform="translate(-0.481 -1.974)" fill="#f2a610"/>
      <path id="Path_283" data-name="Path 283" d="M11.148,5.055a3.228,3.228,0,0,1,0,4.017l2.341,2.341a6.555,6.555,0,0,0,0-8.7Z" transform="translate(-1.974 -0.481)" fill="#f2a610"/>
      <path id="Path_284" data-name="Path 284" d="M3.993,9.072a3.228,3.228,0,0,1,0-4.017L1.651,2.714a6.556,6.556,0,0,0,0,8.7Z" transform="translate(0 -0.481)" fill="#f2a610"/>
    </g>
  </g>
</svg>
