<svg xmlns="http://www.w3.org/2000/svg" width="27.555" height="27.935" viewBox="0 0 27.555 27.935">
  <g id="Group_740" data-name="Group 740" transform="translate(-1323.093 -430.043)">
    <path id="iconfinder_2205231_launch_online_post_send_start_icon" d="M8.611,15.713v8.73L15.5,19.205l6.889,8.73L27.555,0,0,13.968Z" transform="translate(1323.093 430.043)"/>
    <path id="iconfinder_387517_character_math_minus_sign_stop_icon" d="M10.057,3.6a6.257,6.257,0,1,0,6.257,6.257A6.251,6.251,0,0,0,10.057,3.6Zm4.431,7.317H5.493a.585.585,0,0,1-.574-.574V9.4a.585.585,0,0,1,.574-.574h8.995a.585.585,0,0,1,.574.574v.942A.575.575,0,0,1,14.488,10.917Z" transform="translate(1331.764 436.865)" fill="red"/>
  </g>
</svg>
