<svg id="iconfinder_3383436_convert_converter_currency_dollar_euro_icon" xmlns="http://www.w3.org/2000/svg" width="27.555" height="26.12" viewBox="0 0 27.555 26.12">
  <path id="Path_10" data-name="Path 10" d="M50.6,43.932A6.665,6.665,0,1,0,57.261,50.6,6.665,6.665,0,0,0,50.6,43.932Zm0,11.64A4.974,4.974,0,1,1,55.57,50.6,4.98,4.98,0,0,1,50.6,55.572Z" transform="translate(-43.931 -43.932)" fill="#fff"/>
  <path id="Path_11" data-name="Path 11" d="M87.551,83.454a4.1,4.1,0,1,0,4.1,4.1A4.1,4.1,0,0,0,87.551,83.454Zm.442,6.194v.535h-.73v-.508h-.616v-.73h1.09a.507.507,0,0,0,0-1.015h-.464v0a1.236,1.236,0,0,1-.01-2.465v-.514h.73v.508h.462v.73h-1.09a.507.507,0,0,0,0,1.015h.464v0a1.237,1.237,0,0,1,.164,2.443Z" transform="translate(-80.885 -80.886)" fill="#fff"/>
  <path id="Path_12" data-name="Path 12" d="M269.548,262.883a6.665,6.665,0,1,0,6.665,6.665A6.665,6.665,0,0,0,269.548,262.883Zm0,11.64a4.974,4.974,0,1,1,4.974-4.974A4.98,4.98,0,0,1,269.548,274.523Z" transform="translate(-248.658 -250.093)" fill="#fff"/>
  <path id="Path_13" data-name="Path 13" d="M306.5,302.4a4.1,4.1,0,1,0,4.1,4.1A4.1,4.1,0,0,0,306.5,302.4Zm.354,6.4a2.308,2.308,0,0,1-2.057-1.265h-.809v-.72h.582a2.254,2.254,0,0,1,0-.623h-.58v-.72h.8a2.306,2.306,0,0,1,3.327-.908l-.394.6a1.584,1.584,0,0,0-2.077.305h.391v.72H305.3a1.571,1.571,0,0,0,0,.623h.735v.72h-.375a1.582,1.582,0,0,0,2.119.247l.421.584A2.29,2.29,0,0,1,306.857,308.808Z" transform="translate(-285.612 -287.048)" fill="#fff"/>
  <path id="Path_14" data-name="Path 14" d="M138.609,328.765h-1.95a4.5,4.5,0,0,0,4.4,3.59H143.3v-1.879h-2.238A2.613,2.613,0,0,1,138.609,328.765Z" transform="translate(-130.635 -311.368)" fill="#fff"/>
  <path id="Path_15" data-name="Path 15" d="M110.506,271.967h1.84l-2.787-3.141-2.787,3.141h3.734Z" transform="translate(-102.689 -255.074)" fill="#fff"/>
  <path id="Path_16" data-name="Path 16" d="M280.705,130.785h1.949a4.5,4.5,0,0,0-4.4-3.592h-2.238v1.879h2.238A2.614,2.614,0,0,1,280.705,130.785Z" transform="translate(-260.94 -122.108)" fill="#fff"/>
  <path id="Path_17" data-name="Path 17" d="M327.825,194.042H322.25l2.787,3.141Z" transform="translate(-304.168 -184.863)" fill="#fff"/>
</svg>
