<svg id="Layer_30" data-name="Layer 30" xmlns="http://www.w3.org/2000/svg" width="12.402" height="15.5" viewBox="0 0 12.402 15.5">
  <path id="Path_1" data-name="Path 1" d="M15.885,15.883H4.518a.517.517,0,0,1-.46-.749A9.372,9.372,0,0,0,5.035,11V9.167a5.167,5.167,0,0,1,10.333,0v1.824a9.372,9.372,0,0,0,.977,4.133.517.517,0,0,1-.46.759ZM5.319,14.85h9.765a10.406,10.406,0,0,1-.749-3.859V9.167a4.133,4.133,0,0,0-8.267,0v1.824a10.406,10.406,0,0,1-.749,3.859Z" transform="translate(-4.003 -2.45)" fill="#fff"/>
  <path id="Path_2" data-name="Path 2" d="M13.583,28.1A2.583,2.583,0,0,1,11,25.517a.517.517,0,1,1,1.033,0,1.55,1.55,0,0,0,.455,1.1,1.591,1.591,0,0,0,2.191,0,.519.519,0,1,1,.734.734A2.583,2.583,0,0,1,13.583,28.1Z" transform="translate(-7.385 -12.6)" fill="#fff"/>
  <path id="Path_3" data-name="Path 3" d="M15.517,3.583A.517.517,0,0,1,15,3.067V1.517a.517.517,0,1,1,1.033,0v1.55A.517.517,0,0,1,15.517,3.583Z" transform="translate(-9.318 -1)" fill="#fff"/>
</svg>
