<svg xmlns="http://www.w3.org/2000/svg" xmlns:xlink="http://www.w3.org/1999/xlink" width="30" height="25" viewBox="0 0 30 25">
  <defs>
    <clipPath id="clip-path">
      <rect id="Rectangle_84" data-name="Rectangle 84" width="30" height="25" transform="translate(142.781 41.172)" stroke="#707070" stroke-width="1"/>
    </clipPath>
  </defs>
  <g id="Group_731" data-name="Group 731" transform="translate(-1323 -252)">
    <g id="Mask_Group_20" data-name="Mask Group 20" transform="translate(1180.219 210.828)" clip-path="url(#clip-path)">
      <g id="iconfinder_7830783_wireless_payment_credit_card_dollar_icon" transform="translate(145.424 40.925)">
        <path id="Path_95" data-name="Path 95" d="M13.225,20.513a.525.525,0,0,0-.524-.526H6.408a.525.525,0,0,1-.524-.526V4.734a.525.525,0,0,1,.524-.526h9.438a.525.525,0,0,1,.524.526v6.312a1.049,1.049,0,1,0,2.1,0V2.63A2.626,2.626,0,0,0,15.847,0H6.408A2.626,2.626,0,0,0,3.786,2.63V22.617a2.626,2.626,0,0,0,2.622,2.63H12.7a.525.525,0,0,0,.524-.526Z" transform="translate(-3.786)"/>
        <path id="Path_96" data-name="Path 96" d="M135.311,184.7a.788.788,0,0,0,.787-.789v-.549a2.194,2.194,0,0,0,.587-4.219l-2.165-.869a.623.623,0,0,1,.232-1.2h2.132a.789.789,0,0,0,0-1.578H136.1v-.526a.787.787,0,1,0-1.573,0v.549a2.195,2.195,0,0,0-.588,4.219l2.166.87a.622.622,0,0,1-.232,1.2h-2.132a.789.789,0,0,0,0,1.578h.787v.526A.788.788,0,0,0,135.311,184.7Z" transform="translate(-128.101 -168.128)"/>
        <path id="Path_97" data-name="Path 97" d="M328.434,403.205a1.84,1.84,0,0,0-1.835-1.841H316.111a1.84,1.84,0,0,0-1.835,1.841v7.364a1.84,1.84,0,0,0,1.835,1.841H326.6a1.84,1.84,0,0,0,1.835-1.841Zm-1.573,7.364a.263.263,0,0,1-.262.263H316.111a.263.263,0,0,1-.262-.263v-3.156a.263.263,0,0,1,.262-.263H326.6a.263.263,0,0,1,.262.263Zm-11.011-7.364a.264.264,0,0,1,.262-.263H326.6a.264.264,0,0,1,.262.263v1.052a.263.263,0,0,1-.262.263H316.111a.263.263,0,0,1-.262-.263Z" transform="translate(-303.527 -387.426)"/>
        <path id="Path_98" data-name="Path 98" d="M551.92,599.049a.788.788,0,0,0-.787-.789h-1.311a.789.789,0,0,0,0,1.578h1.311A.788.788,0,0,0,551.92,599.049Z" transform="translate(-530.16 -577.484)"/>
      </g>
    </g>
    <g id="Page-1" transform="translate(1336.564 255.986)">
      <g id="Core">
        <g id="check-circle">
          <path id="Shape" d="M7.435,0C3.346,0,0,2.928,0,6.507s3.346,6.507,7.435,6.507,7.435-2.928,7.435-6.507S11.525,0,7.435,0ZM5.948,9.761,2.231,6.507,3.272,5.6,5.948,7.939,11.6,2.993,12.64,3.9,5.948,9.761Z" fill="#00ff6e" fill-rule="evenodd"/>
        </g>
      </g>
    </g>
  </g>
</svg>
