<svg xmlns="http://www.w3.org/2000/svg" xmlns:xlink="http://www.w3.org/1999/xlink" width="30" height="25" viewBox="0 0 30 25">
  <defs>
    <clipPath id="clip-path">
      <rect id="Rectangle_94" data-name="Rectangle 94" width="30" height="25" transform="translate(142.781 41.172)" stroke="#707070" stroke-width="1"/>
    </clipPath>
    <clipPath id="clip-path-2">
      <rect id="Rectangle_100" data-name="Rectangle 100" width="18" height="15" transform="translate(139.339 39.615)" fill="red" stroke="#707070" stroke-width="1"/>
    </clipPath>
  </defs>
  <g id="Group_719" data-name="Group 719" transform="translate(-1323 -298)">
    <g id="Mask_Group_22" data-name="Mask Group 22" transform="translate(1180.219 256.828)" clip-path="url(#clip-path)">
      <g id="iconfinder_7830783_wireless_payment_credit_card_dollar_icon" transform="translate(145.424 40.925)">
        <path id="Path_100" data-name="Path 100" d="M13.225,20.513a.525.525,0,0,0-.524-.526H6.408a.525.525,0,0,1-.524-.526V4.734a.525.525,0,0,1,.524-.526h9.438a.525.525,0,0,1,.524.526v6.312a1.049,1.049,0,1,0,2.1,0V2.63A2.626,2.626,0,0,0,15.847,0H6.408A2.626,2.626,0,0,0,3.786,2.63V22.617a2.626,2.626,0,0,0,2.622,2.63H12.7a.525.525,0,0,0,.524-.526Z" transform="translate(-3.786)"/>
        <path id="Path_101" data-name="Path 101" d="M135.311,184.7a.788.788,0,0,0,.787-.789v-.549a2.194,2.194,0,0,0,.587-4.219l-2.165-.869a.623.623,0,0,1,.232-1.2h2.132a.789.789,0,0,0,0-1.578H136.1v-.526a.787.787,0,1,0-1.573,0v.549a2.195,2.195,0,0,0-.588,4.219l2.166.87a.622.622,0,0,1-.232,1.2h-2.132a.789.789,0,0,0,0,1.578h.787v.526A.788.788,0,0,0,135.311,184.7Z" transform="translate(-128.101 -168.128)"/>
        <path id="Path_102" data-name="Path 102" d="M328.434,403.205a1.84,1.84,0,0,0-1.835-1.841H316.111a1.84,1.84,0,0,0-1.835,1.841v7.364a1.84,1.84,0,0,0,1.835,1.841H326.6a1.84,1.84,0,0,0,1.835-1.841Zm-1.573,7.364a.263.263,0,0,1-.262.263H316.111a.263.263,0,0,1-.262-.263v-3.156a.263.263,0,0,1,.262-.263H326.6a.263.263,0,0,1,.262.263Zm-11.011-7.364a.264.264,0,0,1,.262-.263H326.6a.264.264,0,0,1,.262.263v1.052a.263.263,0,0,1-.262.263H316.111a.263.263,0,0,1-.262-.263Z" transform="translate(-303.527 -387.426)"/>
        <path id="Path_103" data-name="Path 103" d="M551.92,599.049a.788.788,0,0,0-.787-.789h-1.311a.789.789,0,0,0,0,1.578h1.311A.788.788,0,0,0,551.92,599.049Z" transform="translate(-530.16 -577.484)"/>
      </g>
    </g>
    <g id="Mask_Group_25" data-name="Mask Group 25" transform="translate(1195.661 260.385)" clip-path="url(#clip-path-2)">
      <g id="iconfinder_387518_character_math_multiple_sign_icon" transform="translate(140.654 39.484)">
        <path id="Path_112" data-name="Path 112" d="M36.648,30.791a7.568,7.568,0,1,0,7.568,7.568A7.561,7.561,0,0,0,36.648,30.791Zm4.184,10.434a.559.559,0,0,1,0,.783l-.57.57a.559.559,0,0,1-.783,0l-2.831-2.831-2.831,2.831a.559.559,0,0,1-.783,0l-.57-.57a.559.559,0,0,1,0-.783l2.831-2.831-2.849-2.831a.559.559,0,0,1,0-.783l.57-.57a.559.559,0,0,1,.783,0l2.831,2.831,2.831-2.831a.559.559,0,0,1,.783,0l.57.57a.559.559,0,0,1,0,.783L38,38.394Z" transform="translate(-29.08 -30.791)" fill="red"/>
      </g>
    </g>
  </g>
</svg>
