<svg xmlns="http://www.w3.org/2000/svg" width="29.907" height="17.572" viewBox="0 0 29.907 17.572">
  <g id="_x32_67_x2C___Bank_deposit_x2C__cash_x2C__money" transform="translate(0)">
    <g id="Group_20" data-name="Group 20" transform="translate(0 0)">
      <path id="Path_18" data-name="Path 18" d="M187.178,210.94l-2.225,2.029H172.806a.259.259,0,0,0-.259.259.214.214,0,0,1,0,.085v6.971c0,.008,0,.015,0,.023s0,.015,0,.023a.259.259,0,0,0,.259.259h15.642l.029,0,.029,0a.259.259,0,0,0,.259-.259v-5.4l1.417-1.39a1.069,1.069,0,0,0,.735.461,1.415,1.415,0,0,1,.441.173v8.278H170.5V210.94Z" transform="translate(-170.502 -204.876)" fill="#fff"/>
      <path id="Path_19" data-name="Path 19" d="M222.551,252.657a1.527,1.527,0,0,0,1.137,1.085,2.607,2.607,0,0,0,.725.1,3.812,3.812,0,0,0,2.631-1.137l.479-.47v4.637h-7.654a.267.267,0,0,0,0-.035v-.9a2.713,2.713,0,0,0,1.176-.308.259.259,0,1,0-.235-.461,1.878,1.878,0,0,1-1.926-.013.663.663,0,0,1-.334-.608c.042-.3.388-.592.948-.79,1.4-.5,1.689-1.284,1.514-1.807a1.306,1.306,0,0,0-1.142-.78v-.885h3.791C222.541,251.352,222.436,252.161,222.551,252.657Z" transform="translate(-210.201 -241.676)" fill="#fff"/>
      <path id="Path_20" data-name="Path 20" d="M332.594,251.83c1.177-.371,1.867-.057,1.982.285.105.314-.224.809-1.2,1.154-1.024.364-1.246.912-1.287,1.207a1.174,1.174,0,0,0,.546,1.1,2.006,2.006,0,0,0,.768.318v.939a.254.254,0,0,0,0,.035h-7.017v-6.584h7.013v.866a3.949,3.949,0,0,0-.968.185.259.259,0,0,0,.156.494Z" transform="translate(-323.829 -241.675)" fill="#fff"/>
      <path id="Path_21" data-name="Path 21" d="M26.169,124.623a2.709,2.709,0,0,0-2.516.817,4.953,4.953,0,0,1-1.066.694,1.863,1.863,0,0,0-.609-.254c-.322-.087-.455-.123-.485-.47a.259.259,0,0,0-.439-.162l-2.721,2.669a3.056,3.056,0,0,1-2.849.912,1.015,1.015,0,0,1-.778-.7c-.124-.532.254-1.232,1.062-1.969l4.955-4.519a.259.259,0,1,0-.349-.383l-1.7,1.552H14.286c4.1-4.4,5.236-4.335,9.583-4.075,1.186.071,2.646.158,4.457.168v-1.379a.259.259,0,0,1,.259-.259h3.364a.259.259,0,1,1,0,.518H28.844v11.57h3.292a.259.259,0,0,1,0,.518H28.585a.259.259,0,0,1-.259-.259V128.04a3.283,3.283,0,0,1-2.841,1.452,5.187,5.187,0,0,0-2.683.78v-3.666a5.468,5.468,0,0,0,1.169-.757c.671-.52,1.25-.969,2.05-.73a.259.259,0,1,0,.148-.5Z" transform="translate(-2.488 -117.26)" fill="#fff"/>
      <path id="Path_22" data-name="Path 22" d="M24.49,269.063a.85.85,0,1,1,.851.85A.852.852,0,0,1,24.49,269.063Z" transform="translate(3.056 -258.442)" fill="#fff"/>
    </g>
  </g>
</svg>
