<svg xmlns="http://www.w3.org/2000/svg" xmlns:xlink="http://www.w3.org/1999/xlink" width="27.555" height="19" viewBox="0 0 27.555 19">
  <defs>
    <clipPath id="clip-path">
      <rect id="Rectangle_41" data-name="Rectangle 41" width="27.555" height="19" transform="translate(139 41.027)" fill="#fff" stroke="#707070" stroke-width="1"/>
    </clipPath>
  </defs>
  <g id="Mask_Group_9" data-name="Mask Group 9" transform="translate(-139 -41.027)" clip-path="url(#clip-path)">
    <g id="iconfinder_309041_users_group_people_icon" transform="translate(139 43.671)">
      <g id="Group_62" data-name="Group 62" transform="translate(6.206)">
        <path id="Path_61" data-name="Path 61" d="M238.542,237.926c0-1.761,1.614-3.108,3.724-3.108s3.724,1.347,3.724,3.108-1.614,3.108-3.724,3.108S238.542,239.687,238.542,237.926Zm3.724,5.18c-5.709,0-7.447,3.419-7.447,3.419v1.761h14.894v-1.761S247.975,243.106,242.265,243.106Z" transform="translate(-234.818 -234.818)" fill="#fff"/>
      </g>
      <g id="Group_65" data-name="Group 65" transform="translate(18.245)">
        <g id="Group_63" data-name="Group 63" transform="translate(0.372)">
          <ellipse id="Ellipse_17" data-name="Ellipse 17" cx="3.103" cy="2.59" rx="3.103" ry="2.59" fill="#fff"/>
        </g>
        <g id="Group_64" data-name="Group 64" transform="translate(0 7.252)">
          <path id="Path_62" data-name="Path 62" d="M617.916,508.773a6.624,6.624,0,0,0-3.475.829c2.855,1.14,3.972,3.108,3.972,3.315v.1H623.5v-1.347C623.5,511.57,622.136,508.773,617.916,508.773Z" transform="translate(-614.441 -508.773)" fill="#fff"/>
        </g>
      </g>
      <g id="Group_68" data-name="Group 68" transform="translate(18.245)">
        <g id="Group_66" data-name="Group 66" transform="translate(0.372)">
          <ellipse id="Ellipse_18" data-name="Ellipse 18" cx="3.103" cy="2.59" rx="3.103" ry="2.59" fill="#fff"/>
        </g>
        <g id="Group_67" data-name="Group 67" transform="translate(0 7.252)">
          <path id="Path_63" data-name="Path 63" d="M617.916,508.773a6.624,6.624,0,0,0-3.475.829c2.855,1.14,3.972,3.108,3.972,3.315v.1H623.5v-1.347C623.5,511.57,622.136,508.773,617.916,508.773Z" transform="translate(-614.441 -508.773)" fill="#fff"/>
        </g>
      </g>
      <g id="Group_71" data-name="Group 71" transform="translate(0)">
        <g id="Group_69" data-name="Group 69" transform="translate(2.482)">
          <ellipse id="Ellipse_19" data-name="Ellipse 19" cx="3.103" cy="2.59" rx="3.103" ry="2.59" fill="#fff"/>
        </g>
        <g id="Group_70" data-name="Group 70" transform="translate(0 7.252)">
          <path id="Path_64" data-name="Path 64" d="M44.722,508.773a6.624,6.624,0,0,1,3.475.829c-2.855,1.14-3.972,3.108-3.972,3.315v.1H39.136v-1.347C39.136,511.57,40.5,508.773,44.722,508.773Z" transform="translate(-39.136 -508.773)" fill="#fff"/>
        </g>
      </g>
    </g>
  </g>
</svg>
